<?xml version="1.0" encoding="UTF-8"?>
<svg xmlns="http://www.w3.org/2000/svg" version="1.1" viewBox="0 0 1080 1080">
  <defs>
    <style>
      .cls-1 {
        fill: #fff;
      }
    </style>
  </defs>
  <!-- Generator: Adobe Illustrator 28.6.0, SVG Export Plug-In . SVG Version: 1.2.0 Build 709)  -->
  <g>
    <g id="Layer_1">
      <g>
        <path d="M550.34,668.61c4.21-7.46,7.28-13.58,11.07-19.21,1.35-2,4.38-3.76,6.79-3.97,6.33-.55,12.74-.19,20.84-.19-11.38,16.35-21.95,31.21-32.17,46.3-10.14,14.98-19.92,30.2-30.72,46.63,3.48,0,5.13.08,6.76-.01,16.4-.87,32.82-1.59,49.19-2.83,3.1-.23,6.7-1.9,8.95-4.07,16.41-15.77,27.1-35.77,39.36-54.56,26.28-40.29,52.19-80.81,78.39-121.15,3.22-4.96,5.39-8.56-.71-13.55-6.37-5.21-6.77-13.37-5.91-21.19.43-3.84,1.5-7.61,2.68-13.36-2.64,2.64-4.04,4.25-5.65,5.61-12.19,10.35-23.85,21.45-36.87,30.62-6.33,4.47-15.08,6.77-22.97,7.51-15.35,1.45-23.7-9.12-20.53-24.26.79-3.77,2.08-7.44,2.19-12.06-1.6,1.37-3.31,2.64-4.79,4.13-10.69,10.73-22.06,20.76-36,26.86-6.96,3.04-14.85,4.72-22.46,5.3-8.67.66-15.55-3.87-18.95-12.15-1.81-4.41-4.47-4.46-8.35-3.61-20.56,4.51-36.7,16.01-50.31,31.52-19.1,21.75-32.71,47.16-47.69,71.67-19.46,31.85-37.98,64.42-63.17,92.31-22.85,25.31-49.91,44.73-83.53,52.78-25.99,6.23-51.94,6.03-76.75-6.18-15.65-7.7-25.42-23.53-24.61-40.73.56-11.89,8.24-19.73,19.08-19.47,8.2.2,14.03,6,14.17,14.1.14,7.79-4.69,12.71-13.16,13.41-1.13.09-2.25.23-3.34.35.27,14.35,10.56,27.02,26.5,32.5,29.57,10.16,57,5.24,82.49-12.23,20.98-14.38,37.39-33.27,51.39-54.15,21.22-31.67,41.53-63.95,62.58-95.73,15.4-23.24,32.95-44.68,55.52-61.51,1.22-.91,2.46-1.81,3.68-2.71-.25-.46-.5-.93-.75-1.39-2.13.37-4.26.76-6.39,1.11-14.38,2.36-23.21-3.17-27.65-16.92-.47-1.45-2.87-3.32-4.31-3.26-19.92.8-39.84,1.69-59.72,3.19-2.45.18-5.68,3.6-6.72,6.24-2.76,7.02-7.36,9.3-14.54,8.4-4.13-.52-8.38-.09-13.6-.09,1.78-3.65,2.94-6.02,4.45-9.11-1.76,0-3.01-.2-4.17.03-28.79,5.8-56.48,14.54-80.52,32.11-16.3,11.92-28.54,26.93-30.73,47.87-2.79,26.69,7.92,44.21,33.84,50.55,37.9,9.28,72.74,2.23,101.31-26.05,12.6-12.47,19.08-27.97,18.66-45.99-.06-2.54-.34-5.11-.05-7.61.17-1.44,1.29-2.76,1.99-4.14.83,1.26,2.3,2.47,2.41,3.79,1.74,20.4-3.16,38.78-16.96,54.35-19.45,21.95-44.6,31.97-73.16,33.45-11.56.6-23.59-.25-34.85-2.86-28.54-6.6-43.86-32.76-37.1-61.46,5.9-25.06,21.54-42.92,42.55-56.7,25.08-16.44,53.08-25.57,81.92-32.45,4.39-1.05,7.26-3,9.65-6.69,36.36-56.12,72.82-112.19,109.24-168.28,1.55-2.38,2.9-4.89,5.27-8.91-10.13,2.8-18.79,5.06-27.23.8-9.05-4.57-10.31-13.01-9.87-23.08-3.46,1.01-6.21,1.59-8.79,2.6-17.14,6.69-30.84,18.2-41.04,33.02-15.6,22.68-30,46.21-44.71,69.5-17.44,27.6-33.57,56.16-56.13,80.09-25.05,26.57-54.44,45.78-91.67,50.27-20,2.41-39.55.69-57.65-8.94-14.82-7.89-23.15-20.18-22.81-37.41.22-10.94,7.22-18.51,16.96-18.87,7.86-.29,13.84,4.8,14.47,12.3.63,7.6-3.74,12.44-12.16,13.49-1.11.14-2.22.33-3.81.57.6,9.43,4.78,16.68,11.58,22.36,12.41,10.37,27.32,12.85,42.91,12.78,25.43-.12,45.71-11.95,63.84-28.4,22.58-20.49,38.21-46.34,54.89-71.41,18.73-28.14,37.66-56.14,56.97-83.89,4.75-6.83,11.28-12.43,16.99-18.59,1.27-1.36,2.55-2.71,4.17-4.42-29.94-1.7-30.13-1.87-34.36-29.99-1.6-.12-3.32-.48-5-.33-19.08,1.7-38.17,3.31-57.2,5.41-2.61.29-5.1,2.89-7.33,4.8-1.27,1.09-1.89,2.93-2.82,4.42-2.67,4.27-4.62,11.26-8.18,12.21-7.21,1.92-15.3.57-24.05.57,2.76-4.86,5.08-8.95,7.4-13.04-.3-.42-.61-.85-.91-1.27-6.02,2.02-12.11,3.84-18.04,6.1-19.19,7.31-37.1,16.72-50.83,32.55-9.57,11.04-14.8,23.81-14.8,38.55,0,20.64,10.48,35.43,32.09,40.68,33.6,8.16,65,2.78,91.71-20.67,15.48-13.59,22.7-30.96,21.49-51.72-.12-2.13,1.2-4.35,1.85-6.52.82,2.13,2.26,4.23,2.37,6.39,1.63,30.03-12.72,51.3-37.62,66.03-22.77,13.46-47.68,17.07-73.63,12.9-34.31-5.52-51.31-35.84-38.96-68.4,8.27-21.81,23.59-37.41,43.58-48.04,15.11-8.04,31.44-13.75,47.11-20.78,3.01-1.35,6.27-3.45,8.02-6.12,37.26-56.93,74.35-113.98,111.41-171.04,9.14-14.07,18.06-28.28,26.98-42.26-.58-.76-.81-1.31-1.02-1.3-17.71.89-35.57.69-53.09,3.06-19.39,2.62-34.34,14.5-47.26,28.6-17.69,19.31-30.57,41.97-43.98,64.26-19.65,32.66-38.69,65.77-63.09,95.27-20.82,25.17-45.88,44.99-76.97,55.75-29.34,10.15-59.13,11.66-87.99-2.13-16.68-7.97-26.22-21.36-25.86-40.51.21-11.38,7.26-19.25,17.4-19.98,8.89-.64,15.51,4.89,16.02,13.38.5,8.44-4.85,13.57-14.42,13.83-.74.02-1.48.15-2.83.29,1.52,13.28,8.03,23,19.42,28.96,23.17,12.13,47.17,11.72,70.88,2.11,25.44-10.31,44.82-28.88,60.29-50.77,22.1-31.27,42.68-63.62,63.65-95.68,17.4-26.61,35.8-52.29,60.88-72.4,12.33-9.89,25.72-17.76,41.4-21.12.67-.14,1.26-.69,2.74-1.53-1.97-.41-3-.79-4.04-.82-30.29-.96-60.59-2.99-90.85-2.55-40.24.57-79.94,6.14-117.87,20.62-22.77,8.69-43.74,20.15-58.13,40.81-9.81,14.09-12.79,29.76-9.22,46.4,3.87,18.03,16.99,27.59,33.63,31.48,29.71,6.95,58.46,3.63,84.59-13.15,23.22-14.91,36.22-35.68,34.56-64.24-.13-2.29,1.26-4.67,1.95-7.01.94,2.41,2.54,4.78,2.71,7.25,2.47,36.53-21.19,63.36-53.01,76.39-22.44,9.19-45.9,11.78-69.63,6.3-33.82-7.8-49.36-38.87-36.97-71.7,8.83-23.41,25.62-39.35,46.6-51.56,34.22-19.92,71.89-29.33,110.55-35.17,44.47-6.72,89.23-6.42,134.07-4.91,19.3.65,38.67-.03,57.97-.86,10.42-.45,20.76-2.52,31.15-3.76,2.09-.25,4.23-.04,8.17-.04-46.15,68.6-91.55,136.06-136.94,203.53.33.26.67.53,1,.79,3.78-4.51,7.59-9,11.35-13.53,14.9-17.99,30.9-34.78,51.06-47.1,9.54-5.83,19.63-9.62,30.96-9.49,16.97.19,26.88,11.89,22.56,28.39-2.07,7.93-6.3,15.6-10.9,22.48-7.7,11.52-16.48,22.32-24.79,33.44-1.84,2.47-3.62,4.98-6.2,8.53,3.23.18,5.25.36,7.28.4,15.05.29,30.11.76,45.16.64,3.1-.02,6.84-1.54,9.16-3.63,14.86-13.4,24.33-30.97,35.64-47.12,8.3-11.85,16.02-24.1,24.36-35.92,1.41-2.01,4.53-3.68,7.01-3.9,6.31-.55,12.71-.18,20.73-.18-21.57,31.09-42.19,60.8-62.8,90.5.37.58.73,1.15,1.1,1.73,4.75-.27,9.49-.53,14.24-.82,5.45-.33,11.31.47,16.25-1.3,9.79-3.5,19.75-3.04,29.72-3.67,1.43-.09,3.11-1.72,4.07-3.06,10.65-14.93,21.38-29.8,31.68-44.97,7.36-10.83,13.94-22.19,21.24-33.06,1.39-2.06,4.42-3.97,6.85-4.2,6.36-.58,12.81-.2,20.44-.2-15.42,21.46-30.55,42.52-45.69,63.58.39.31.79.63,1.18.94,3.71-4.32,7.42-8.64,11.14-12.96,14.97-17.37,30.41-34.22,50.19-46.38,9.14-5.62,18.84-9.48,29.82-9.3,18.77.31,29.87,16.18,21.71,33.12-6.23,12.93-14.67,24.87-22.75,36.82-10.06,14.89-20.94,29.23-31.1,44.05-4.05,5.91-7.33,12.92-2.16,19.58,4.89,6.3,12.14,4,18.56,2.53,12.14-2.79,22.08-9.78,31.45-17.59,4.95-4.13,9.51-8.72,14.37-12.95,7.95-6.92,13.2-15.45,17.81-24.97,17.93-37.04,46.74-62.69,85.15-77.09,7.25-2.72,15.71-3.28,23.57-3.07,13.07.35,20.84,7.74,23.68,20.39.25,1.12.58,2.22,1.36,5.18,4.01-6.06,7.61-10.75,10.37-15.9,2.83-5.29,6.44-7.66,12.59-7.07,5.75.56,11.6.12,18.24.12-29.11,43.64-57.63,86.41-86.15,129.17.26.39.51.79.77,1.18,3.49-.83,7.04-1.44,10.45-2.52,19.38-6.14,37.11-15.57,53.37-27.69,2.29-1.7,4.12-4.66,5.05-7.42,3.72-10.99,10.34-18.13,22.5-19.28,2.07-.2,4.57-1.54,5.89-3.15,9.19-11.14,18.18-22.46,27.08-33.83,1.4-1.79,2.58-4.1,2.94-6.32,3.2-19.76,16.4-28.97,34.57-32.44,11.39-2.18,22.65-1.09,32.98,4.85,9.83,5.65,13.96,16.3,10.44,26.6-2.55,7.45-12.9,12.99-22.35,11.71,1.37-4.86,3-9.61,4.02-14.5,2.62-12.54-2.79-22.26-13.22-24.25-13.97-2.67-24.87,4.34-26.95,17.54-1.65,10.44,1.2,20.14,5.3,29.6,3.19,7.35,6.49,14.66,9.4,22.12,9.58,24.51,1.05,46.58-22.53,58.67-1.88.96-3.72,2.01-5.58,3.01.2.61.4,1.21.61,1.82,8.89-2.87,18.08-5.02,26.6-8.72,30.88-13.42,54.87-35.68,76.06-61.2,7.23-8.71,13.6-18.13,20.39-27.2,1.08-1.45,2.33-2.78,4.59-3.5-.29,1-.35,2.15-.9,2.98-21.02,31.71-45.01,60.6-77.77,81.01-20.3,12.65-42.23,20.66-66.36,20.56-8.45-.04-17.26-1.35-25.26-4.02-12.28-4.09-19.96-13.3-22.7-26.23-.35-1.66-.78-3.31-1.34-5.69-7.2,4.51-13.86,8.8-20.62,12.9-14.48,8.79-29.99,15.22-46.45,19.15-4.52,1.08-7.62,3.16-10.17,7.02-15.76,23.9-33.12,46.51-54.4,65.85-16.48,14.98-34.6,27.42-55.47,35.59-2.07.81-4.48,2.06-5.6,3.82-15.01,23.56-29.89,47.19-44.57,70.96-2,3.24-3.09,7.22-3.88,11-1.99,9.51,3.54,15.35,12.92,12.77,6.65-1.82,13.37-4.83,18.96-8.83,21.6-15.44,40.84-33.21,54.86-56.26,10.26-16.86,21.65-33.03,32.52-49.52,1.14-1.73,2.1-3.57,3.72-6.36-6.68-.36-12.29-.66-17.89-.97-.13-.73-.25-1.47-.38-2.2,1.87-.63,3.92-2.09,5.58-1.74,13.45,2.83,20.79-4.08,26.7-15.04,4.44-8.22,10.47-15.57,15.49-23.49,2.25-3.56,4.91-5.11,9.14-4.83,4.79.32,9.61.07,16.34.07-9.96,14.77-18.93,28.06-29.01,43h47.08c.18.93.36,1.86.53,2.78-1.95.64-3.9,1.8-5.86,1.83-13.3.17-26.6-.09-39.89.26-2.47.06-5.93,1.55-7.18,3.5-17.66,27.46-35.23,54.99-52.28,82.82-3.69,6.02-5.51,13.26-7.72,20.09-.68,2.1.2,4.7.37,7.07.53.13,1.06.26,1.58.38,4.96-7.63,10.3-15.04,14.76-22.96,3.13-5.55,6.79-8.5,13.4-7.8,4.6.49,9.29.09,15.28.09-7.87,12.54-15.35,24.44-22.82,36.33.26.42.52.84.77,1.25,2.83-.79,5.79-1.28,8.48-2.41,17.97-7.56,33.18-19.39,46.55-33.14,17.42-17.91,33.67-36.97,50.43-55.53,1.11-1.23,2.25-2.45,4.28-3.16-.2.78-.18,1.73-.64,2.3-20.65,25.82-41.47,51.52-67.25,72.55-13.24,10.8-27.09,20.58-44.29,24.42-2.21.49-4.3,3.14-5.72,5.28-23.13,34.87-46.04,69.88-69.24,104.7-8.98,13.48-18.58,26.54-27.9,39.8l.99,1.04c1.32-1.32,2.71-2.58,3.95-3.97,13.16-14.72,25.72-30.05,42.09-41.49,11.69-8.17,23.91-14.79,38.92-14.21,9.2.35,17.3,2.43,21.22,11.63,4.3,10.08,2.52,19.57-4.53,27.93-9.31,11.03-21.72,16.99-35.23,21.01-4.42,1.32-8.89,2.5-14.2,3.98,8.41,7.92,11.35,17.28,10.54,28.57,2.6,0,4.94-.62,6.7.12,4.12,1.75,9.11,3.25,11.64,6.49,3.78,4.86.72,11.08-5.55,12.51-5.1,1.16-10.43,1.74-15.67,1.78-4.12.04-6.23,1.62-7.02,5.38-1.11,5.27-4.07,11.07.18,15.69,4.26,4.64,10.01,1.81,14.89.26,17.4-5.54,31.39-16.59,44.32-28.91,13.71-13.06,26.5-26.79,36.83-43.06,17.73-27.91,41.82-49.14,73.58-59.98,7.89-2.69,16.94-3.27,25.36-2.86,13.95.68,19.9,13.7,12.28,25.58-6.57,10.24-16.78,16.28-27.13,21.81-19.76,10.56-40.9,17.6-62.46,23.49-2.41.66-5.24,2.78-6.29,4.98-6.12,12.91-9.74,26.49-7.31,40.9,2.34,13.88,9.21,19.09,23.2,18.06,13.24-.97,24.86-6.8,36-13.34,34.29-20.15,61.98-47.37,84.43-80.07,1.61-2.35,3.47-4.54,5.21-6.8.63.4,1.25.81,1.88,1.21-.71,1.58-1.23,3.28-2.16,4.73-19.84,31.07-45.18,56.84-75.49,77.72-16.41,11.3-33.98,20.28-54.07,22.73-6.12.74-12.58.61-18.64-.47-15.02-2.69-23.79-12.7-24.49-27.91-.33-7.13.84-14.32,1.4-22.53-1.72,1.62-3.19,2.88-4.52,4.27-12.74,13.29-25.53,26.72-41.77,35.69-8.92,4.92-18.9,8.19-28.74,11.05-4.4,1.28-9.77.34-14.45-.72-10.02-2.26-15.08-9.3-15.01-19.59.01-1.92,0-3.85,0-6.36-12.18-.53-23.79,1.69-34.86,6.15-20.93,8.42-36.3,23.83-48.43,42.11-16.42,24.74-31.6,50.31-47.38,75.49-16.82,26.84-32.98,54.21-55.1,77.2-26.1,27.13-56.4,47.13-94.76,51.94-21.71,2.72-43.05,1.34-62.81-9.25-15.76-8.44-24.56-21.48-24.19-39.79.22-10.7,6.41-18.24,15.73-19.78,9.14-1.52,16.73,3.95,17.71,12.75.93,8.38-4.58,13.82-14.48,14.32-.74.04-1.46.25-2.71.47,1.47,13.33,8.06,23.15,19.52,28.9,27.56,13.82,54.92,11.5,81.39-3.18,23.44-13,41.28-32.31,56.13-54.09,21.37-31.33,41.6-63.43,62.39-95.15,14.63-22.31,30.76-43.39,51.17-60.85.68-.58,1.15-1.41,2.59-3.22h-24.71c5.83-9.23,10.88-17.21,15.92-25.19l-1.16-1.93c-2.49,1.05-5.3,1.67-7.4,3.24-6.57,4.91-12.71,10.4-19.31,15.25-8.12,5.97-17.01,10.43-27.22,11.59-16.8,1.91-25.56-5.99-25.46-22.87,0-.94-.14-1.89-.25-3.19-5.97-.23-10.92.74-16,4.19-10.44,7.1-21.1,14.18-32.49,19.51-10.11,4.74-20.96,4.17-30.56-3.14-1.12-.85-3.46-1.14-4.76-.58-20.34,8.79-39.13,19.77-51.89,38.72-8.04,11.95-11.61,25.14-10.07,39.52,1.85,17.2,11.18,28.83,27.12,35.17,36.2,14.37,84.09,3.26,110.13-25.61,10.89-12.07,16.85-26.21,16.67-42.67-.03-3.13-.3-6.28-.03-9.38.12-1.44,1.26-2.79,1.94-4.18.93,1.2,2.58,2.34,2.69,3.62,1.54,17.5-1.66,33.87-12.03,48.45-13.03,18.32-30.98,29.52-52.28,35.59-19.5,5.56-39.31,6.86-59.16,2.11-30.21-7.22-45.76-33.21-38.3-63.41,5.91-23.94,20.78-41.21,40.85-54.5,6.18-4.09,12.84-7.47,19.07-11.5,1.35-.88,2.82-3.41,2.5-4.76-2.91-12.2-.77-23.87,4.09-34.93,16.63-37.9,42.68-66.99,80.84-84.31,8.8-4,18.23-4.59,27.63-3.23,10.87,1.57,18.63,7.63,22.87,17.92.86,2.1,1.72,4.19,3.21,7.86ZM535.06,303.82c-7.5,4.59-118.85,167.35-121.04,176.59,4.06-4.84,7.54-9.02,11.06-13.16,13.61-16,28.29-30.81,46.56-41.61,9.51-5.62,19.64-8.76,30.75-7.74,11.1,1.02,17.76,6.79,18.14,17.79.23,6.49-.98,14.12-4.36,19.45-9.81,15.48-21.03,30.07-31.72,44.99-2.43,3.39-4.95,6.71-7.64,10.33,1.53.6,2.05.97,2.58.98,15.64.37,31.27.78,46.91.95,1.74.02,4.05-.85,5.14-2.13,3.76-4.39,7.34-8.98,10.53-13.8,7.86-11.85,14.92-24.27,23.37-35.67,5.86-7.9,13.51-14.46,20.33-21.59-15.05-21.95-14.3-42.15,1.96-56.29,11.72-10.2,34.09-14.26,42.59-6.42-13.65.67-25.41,3.61-30.61,17.05-4.57,11.81-5.16,23.61-.31,36.16,3.81-2.01,6.54-3.48,9.3-4.9,9.93-5.12,20.37-8.07,31.64-6.81,11.64,1.3,20.16,6.93,24.24,18.36.59,1.66,1.51,3.21,2.8,5.9,3.76-6.64,6.74-12.11,9.94-17.43.95-1.57,2.49-3.84,3.87-3.93,6.86-.4,13.76-.18,22.09-.18-3.03,4.71-5.14,7.98-7.24,11.24.54.38,1.08.77,1.61,1.15,45.47-34.87,75.62-82.56,106.63-129.62-6.07,5.1-11.28,11.06-17.11,16.34-11.67,10.58-24.17,19.92-40.19,22.99-22.46,4.31-38.18-9.28-37.22-32.15.09-2.22.01-4.45.01-6.68-.62-.44-1.25-.89-1.87-1.33-2.29,2.82-4.38,5.84-6.92,8.42-11.16,11.37-23.33,21.47-37.94,28.14-9.09,4.15-18.59,5.97-28.53,3.05-12.04-3.53-19.32-13.68-16.46-25.9,1.95-8.34,5.49-16.86,10.38-23.87,12.63-18.1,26.71-35.18,39.54-53.15,4.43-6.21,7.67-13.6,9.95-20.93,2.09-6.72-2.16-12.18-9.14-11.74-6.81.43-14.42,1.54-20.03,5.02-11.2,6.95-22.17,14.8-31.65,23.93-31.01,29.86-57.07,63.71-78.22,101.28-.86,1.52-2.62,3.5-4.06,3.57-6.91.37-13.85.17-22.3.17,7.89-12.85,14.95-24.35,22.62-36.85ZM733.51,312.16c-.92,18.86,10.78,26.7,27.9,18.71,1.06-.5,2.14-.98,3.13-1.6,32.62-20.25,56.24-47.99,69.08-84.32,2.42-6.86,3.3-14.51,3.52-21.84.34-11.3-6.5-17.56-17.7-16.62-5.14.43-10.58,1.55-15.15,3.83-23.89,11.88-40.61,31.32-54.17,53.65-8.98,14.78-16.07,30.41-16.6,48.19ZM433.57,759.1c3.09-.72,4.56-1.03,6.02-1.41,17.17-4.48,34.28-9.22,51.55-13.3,5.1-1.21,9.18-3.2,12.08-7.34,7.49-10.69,15.49-21.1,22.02-32.36,6.88-11.85,11.71-24.72,11.61-38.85-.1-13.26-7.99-20.6-21.1-18.45-6.02.99-12.33,3.08-17.41,6.37-30.93,19.99-51.15,48.22-61.56,83.38-1.99,6.72-2.1,13.99-3.22,21.96ZM605.67,523.95c18.27-16.11,33.15-34.11,41.86-56.32,3.63-9.27,5.91-19.44,6.69-29.37.8-10.06-7.42-16.75-17.44-16.04-12.5.89-22.13,7.62-31.25,15.46,1.18,2.01,2.03,3.45,2.41,4.11-4.53,1.94-9.83,2.72-12.84,5.76-16.04,16.2-27.68,35.26-34.45,57.14-.82,2.67-1.1,5.51-1.66,8.44,1.56.32,2.32.65,3.05.6,7.98-.58,15.96-1.18,23.93-1.84,11.58-.96,15.1,1.06,19.7,12.06ZM299.88,302.14c.34.43.68.85,1.03,1.28.94-.06,1.88-.08,2.81-.2,18.61-2.3,37.23-4.47,55.79-7.07,2.64-.37,5.67-2.36,7.35-4.51,8.3-10.6,16.21-21.51,24.25-32.31,7.92-10.65,16.09-21.13,23.64-32.04,3.4-4.92,5.11-11.08,1.45-16.6-3.69-5.55-10.22-5.55-15.46-3.73-8.19,2.84-16.5,6.27-23.59,11.15-22.45,15.43-39.95,36.04-56.8,57.15-7.02,8.8-13.66,17.91-20.47,26.88ZM392.68,516.48c1.84.4,2.41.67,2.96.62,18.09-1.57,36.19-3.09,54.26-4.9,1.74-.17,3.74-1.88,4.85-3.42,8-11.06,15.7-22.33,23.69-33.39,8.34-11.54,17.15-22.74,25.24-34.44,3.03-4.39,4.32-10.08.59-14.88-3.71-4.78-9.64-5.13-14.53-3.18-8.42,3.36-17.08,6.98-24.33,12.27-25.53,18.65-44.73,43.42-63.63,68.35-3.02,3.98-5.76,8.18-9.11,12.97ZM617.41,735.25c15.9.82,29.88,1.92,43.88,2.17,15.9.29,11.82,3.15,19.1-12.09,2.19-4.58,4.91-9.71,1.12-14.32-3.76-4.57-9.03-1.68-13.75-1.05-4.81.64-9.67,1.19-14.51,1.25-1.17.02-2.38-2-3.56-3.09,1.19-1.09,2.28-2.92,3.6-3.11,2.85-.41,5.83-.04,8.74.12,12.86.72,25.42-.65,37.18-6.18,14.07-6.61,23.33-16.95,23.94-33.26.51-13.69-7.89-20.18-20.74-15.71-5.08,1.77-9.99,4.52-14.4,7.63-20.99,14.81-37.34,34.26-53.14,54.19-5.66,7.14-10.91,14.61-17.46,23.43ZM891.66,296.17c-8.62,5.98-9.17,22.66-1.31,31.64,9.93,11.34,31.46,14.69,44.22,6.69,13.72-8.6,18.32-22.23,16.23-36.96-1.84-12.94-7.12-25.4-11.03-38.03-1.64-5.29-3.68-10.45-5.66-16-9.19,12.1-17.99,23.66-26.77,35.22,7.05,7.54,7.84,16.86,1.93,22.14-4.93,4.39-11.69,2.7-17.6-4.7ZM804.77,708.54c1.64.43,2.24.8,2.72.68,3.98-.98,8-1.86,11.89-3.12,19.88-6.45,39.02-14.52,53.31-30.42,3.9-4.34,6.46-10.76,7.47-16.59,1.46-8.45-4.45-13.66-12.89-11.7-5.74,1.33-11.48,3.99-16.38,7.3-14.75,9.97-26.31,23.24-36.4,37.78-3.49,5.03-6.37,10.49-9.73,16.08ZM425.57,316.83c-.8-.9-1.03-1.39-1.29-1.41-14.2-.88-28.4-1.74-42.61-2.5-1.26-.07-2.82.29-3.8,1.03-4.22,3.24-6.74,14.81-4.45,19.59,2.38,4.97,7.59,7.42,15.28,4.35,10.02-4,19.4-9.68,28.9-14.91,2.92-1.61,5.36-4.1,7.97-6.15ZM567.75,755.04c-2.69-.57-3.42-.87-4.13-.85-14.03.4-28.05.81-42.08,1.32-1.28.05-2.8.47-3.74,1.28-3.18,2.72-4.75,13.85-2.5,17.8,3.06,5.37,8.21,5.64,13.34,4.48,15.21-3.46,26.22-13.7,39.11-24.01ZM499.05,315.7c-1.22-.46-1.75-.83-2.27-.83-7.21-.03-14.43-.03-21.64.02-9.76.07-12.07,2.27-12.93,12.21-.78,8.97,3.29,12.6,12.15,11.55,13.72-1.63,19.02-11.97,24.7-22.94ZM501.97,535.03c-.51-1.01-.58-1.31-.67-1.31-11.45-.82-22.89-1.7-34.35-2.29-1.01-.05-2.66,1.57-3.09,2.75-2.32,6.38,1.9,12.88,8.61,12.84,11.45-.08,20.43-6.18,29.5-11.99ZM632.64,757.46c.19-.35.37-.7.56-1.06-8.95,0-17.89-.06-26.83.07-1.21.02-2.96.57-3.53,1.47-4.09,6.48-7.93,13.12-11.82,19.64,14.2-6.86,27.91-13.49,41.62-20.12ZM559.59,533.06c.97,6.02,4.52,8.7,9.13,9.24,9.4,1.1,16.83-3.44,24.66-9.24h-33.79ZM474.75,760.54c-11.93,2.9-23.86,5.81-36.72,8.94,8.9,8.75,25.4,4.77,36.72-8.94ZM505,539.48c4.76-1.53,9.52-3.06,14.28-4.6-5.91-1.85-11.15-1.73-14.28,4.6Z"/>
        <path d="M596.51,1005.1c9.26-14.81,17.59-28.15,25.93-41.48-.23-.22-.47-.44-.7-.67-4.32,4.03-8.32,8.48-13.02,12.01-12.31,9.25-24.69,18.43-37.49,26.98-7.08,4.72-15.38,6.62-24.09,6.02-11.65-.8-19.98-9.06-18.12-20.57,1.53-9.44,4.45-19.28,9.32-27.42,12.62-21.12,26.62-41.43,40.13-62.01,5.58-8.5,11.17-17,17.15-25.22,1.35-1.85,4.26-3.38,6.56-3.56,6.34-.48,12.74-.17,20.87-.17-3.75,5.46-6.56,9.53-9.35,13.62-19.65,28.71-39.44,57.34-58.85,86.22-3.89,5.78-7.21,12.25-9.18,18.89-1.17,3.95-.58,9.93,1.81,12.93,1.82,2.29,8.02,2.53,11.75,1.59,14.21-3.55,25.35-12.77,36.53-21.63,29.7-23.54,52.4-52.93,71.16-85.61,4.18-7.29,8.87-14.29,13.1-21.55,1.88-3.22,4.15-4.74,8.01-4.53,5.6.3,11.23.08,18.82.08-16.31,23.09-31.63,44.8-46.96,66.51.35.3.7.6,1.04.9,3.37-4.02,6.79-8,10.1-12.06,14.9-18.25,30.9-35.31,51.01-48.02,9.94-6.28,20.54-10.44,32.48-10.49,17.26-.07,26.31,12.19,19.83,28.11-3.5,8.6-8.95,16.42-13.67,24.5-2.01,3.44-4.36,6.68-5.76,10.58,6.23-6.92,12.27-14.02,18.71-20.73,14-14.59,28.79-28.41,47.55-36.62,7.17-3.14,15.29-5.25,23.08-5.58,17.37-.75,26.99,12.54,20.84,28.9-3.46,9.22-8.54,18.05-14.13,26.21-11.05,16.12-23.1,31.54-34.42,47.48-3.82,5.38-7,11.3-9.85,17.27-2.16,4.51-2.78,9.58.9,13.84,3.5,4.06,8.56,4.66,12.97,2.83,8.95-3.71,18.33-7.2,26.1-12.77,25.14-18.03,45.94-40.47,63.91-65.68,17.75-24.9,40.16-44.43,69.44-54.47,8.25-2.83,17.73-3.85,26.44-3.13,14.18,1.16,20.33,15.2,11.25,26.21-6.42,7.78-14.95,14.42-23.73,19.52-20.22,11.74-42.31,19.16-64.96,24.92-2.31.59-5.01,2.5-6.09,4.56-5.98,11.48-8.67,23.86-8.19,36.79.14,3.64,1.12,7.36,2.29,10.84,2.76,8.22,8.62,12.31,17.29,12.25,13.14-.09,24.83-5.18,36.01-11.32,32.59-17.91,59.01-42.89,81.41-72.3,3.31-4.35,6.33-8.93,9.27-13.54.91-1.43,1.13-3.3,1.66-4.96,1.07.88,2.15,1.76,3.22,2.64-.62,1.57-.98,3.31-1.88,4.69-23.97,36.55-54,66.82-92.51,88.04-15.77,8.69-32.47,14.4-51,12.92-18.04-1.44-29.18-12.64-29.51-30.78-.1-5.22.96-10.47,1.68-15.68.39-2.79,1.18-5.53.6-8.9-1.97,2.06-3.81,4.26-5.92,6.17-13.41,12.22-26.49,24.84-40.48,36.37-8.6,7.09-18.81,11.79-30.37,12.88-23.51,2.23-31.34-17.19-25.4-32.96,4.07-10.81,10.42-21,17.07-30.55,11.18-16.02,23.55-31.2,35.11-46.97,2.96-4.03,5.37-8.72,6.91-13.48,2.59-8-2.16-14.22-10.44-13.08-6.63.92-13.41,3.06-19.36,6.13-18.34,9.46-32.72,23.99-46.65,38.83-23.69,25.23-43.85,53-59.02,84.21-1.9,3.91-4.35,5.43-8.66,5.13-5.26-.36-10.56-.11-15.84-.16-.56,0-1.12-.26-2.53-.61.99-2.02,1.71-3.92,2.78-5.61,19.04-30.05,38.21-60.03,57.13-90.16,4.35-6.92,8.55-14.09,11.6-21.64,4.4-10.85-1.66-17.8-13.27-16.09-10.39,1.53-19.06,6.86-27.32,12.87-21.93,15.94-39.58,36.15-55.22,57.96-13.99,19.51-26.43,40.12-39.68,60.16-.92,1.4-2.82,2.96-4.33,3.02-6.99.32-14.01.14-22.91.14ZM927.17,932.26c.42.41.84.83,1.27,1.24,25.67-6.86,50.48-15.54,68.61-36.67,2.86-3.34,4.56-8.27,5.3-12.72,1.58-9.54-4.69-15.31-14-12.87-5.17,1.35-10.37,3.66-14.77,6.68-16.16,11.07-28.71,25.71-39.39,41.98-2.59,3.95-4.69,8.23-7.01,12.36Z"/>
        <path d="M658.54,808.25c.08,7.34-5.1,12.95-12.11,13.1-7.28.16-12.82-5.5-12.78-13.04.04-7.25,5.44-12.83,12.42-12.84,7.02-.01,12.39,5.48,12.47,12.78Z"/>
        <path d="M563.84,157c-7.08.13-12.51-5.23-12.71-12.53-.21-7.61,5.16-13.38,12.44-13.38,7.18,0,12.32,5.32,12.39,12.82.07,7.45-5.03,12.96-12.12,13.1Z"/>
        <path class="cls-1" d="M505,539.48"/>
      </g>
    </g>
  </g>
</svg>