<?xml version="1.0" encoding="UTF-8"?>
<svg xmlns="http://www.w3.org/2000/svg" version="1.1" viewBox="0 0 1920 1080">
  <!-- Generator: Adobe Illustrator 28.6.0, SVG Export Plug-In . SVG Version: 1.2.0 Build 709)  -->
  <g>
    <g id="Layer_1">
      <g>
        <path d="M1254.33,369.49c-2.33,1.09-4.59,2.36-7.01,3.2-1.97.69-2.28,2.19-2.7,3.79-.4,1.55.45,2.31,1.68,3.05,7.61,4.63,9.24,7.28,7.88,12.56-1.39,5.38-5.03,7.57-13.26,7.99,1.36,11.23.07,13.95-10.13,19.02-3.18,1.58-2.17,4.35-2.92,6.6-.73,2.19,1.21,2.63,2.73,3.36,6.06,2.92,8.31,7.52,6.43,12.81-1.81,5.08-7.01,7.03-14.31,5.05,1.74,4.26,3.12,8.38,1.12,12.7-1.91,4.12-5.17,6.55-9.4,7.93-3.49,1.14-1.93,4.3-2.5,6.61-.48,1.97.37,2.89,2.16,3.77,6.24,3.05,8.24,6.46,7.06,11.38-1.28,5.31-4.9,7.51-11.87,7.23-.54-.02-1.08,0-1.62,0-.8.63-.26,1.33-.08,1.97,2.5,8.62-.61,15.45-9.21,17.5-5.47,1.3-3.52,5.16-4.34,8.09-.98,3.47,2.24,2.57,3.81,3.19,4.48,1.76,6.9,4.8,6.42,9.74-.46,4.75-3.48,7.45-7.88,7.88-4.73.47-8.01-2.09-9.49-6.74-.43-1.35-.41-3.2-2.14-3.58-1.91-.42-3.8.15-4.52,2.17-.72,2,.5,2.89,2.38,3.51,5.91,1.94,9.35,6.19,9.12,12.35-.22,6.09-3.66,10.28-9.8,11.84-4.63,1.18-2.25,5.13-3.12,7.8-.94,2.87,1.12,3.32,3.08,4.05,4.56,1.7,6.8,5.09,6.06,9.89-.7,4.55-3.75,7.31-8.3,7.47-4.76.16-8.01-2.41-9.13-7.18-.35-1.5-.29-3.18-2.53-2.43-1.5.5-3.64.37-4.16,2.23-.72,2.54,1.76,2.26,3.11,2.87,5.7,2.57,8.85,6.91,8.55,12.31-.34,6.01-3.64,9.8-9.31,11.69-2.41.8-5.86,8.36-5.14,10.78.36,1.21,1.28,1.13,2.16,1.25,5.44.79,8.29,3.9,7.83,9.41-.38,4.52-3.43,7.14-7.71,7.2-5.09.07-8.2-2.79-8.46-8.18-.05-1.07-.02-2.68-1.63-2.11-2.12.75-5.06.2-6.07,2.99-.63,1.76.58,2.63,2.12,3.26,1.69.69,3.48,1.35,4.91,2.44,7.8,5.96,5.89,17.05-3.68,21.19-2.21.96-3.74,1.79-3.66,4.65.07,2.7,1.6,3.34,3.64,3.99,4.13,1.31,7.09,4.04,8.36,8.16.91,2.92,2.86,3.3,5.43,3.59,3.07.34,3.04-2.01,3.84-3.71,2.69-5.65,7.67-8.44,13.37-7.46,5.6.97,9.23,5.26,9.5,11.8.12,2.85.39,4.15,3.96,4,6.4-.27,11.34,3.93,12.49,9.57,1.23,6.04-1.54,11.88-7.98,13.98-4.88,1.59-2.89,5.22-3.74,7.98-.9,2.92,1.52,3.62,3.55,4.62,4.04,1.97,6.24,5.28,5.58,9.81-.65,4.47-3.58,7.36-7.98,8.08-4.5.74-7.78-1.51-9.92-5.44-.44-.8-.73-1.69-1.1-2.53-.67-1.54-1.87-1.56-3.22-1.09-1.24.43-2.5.87-2.73,2.4-.31,2.04,1.41,1.66,2.51,2.1,6.7,2.63,9.81,7.89,8.43,14.19-1.32,6.02-6.68,9.79-13.76,9.07-5.18-.53-2.32,3.15-2.46,4.65-.52,5.46-3.55,9.83-8.41,11.08-5.6,1.43-10.91-.82-13.63-5.84-.43-.8-.74-1.68-1.01-2.56-.42-1.36-1.09-2.38-2.7-2.17-1.3.17-1.86,1.15-1.96,2.32-.1,1.19-.82,2.64.84,3.39,1.17.53,2.47.83,3.56,1.5,3.6,2.2,5.67,5.42,4.92,9.69-.76,4.32-3.27,7.47-7.88,8.12-4.43.63-7.82-1.04-10.2-5-.96-1.6-.34-5.61-3.68-4.18-3.45,1.48-9.01-3.08-10.62,4.18-.93,4.21-4.87,6.21-9.43,6.24-4.74.04-8.22-1.99-10.1-6.3-.99-2.28-1.45-4.6-4.83-3.81-3.22.75-7.52-2.39-9.18,3.66-1.19,4.35-5.33,5.79-9.82,5.4-4.39-.38-7.41-2.88-8.17-7-.65-3.48-1.89-4.46-5.09-3.31-.5.18-1.14.27-1.64.13-4.45-1.2-7.23-.37-8.69,4.78-.99,3.51-4.68,5.2-8.5,4.86-3.75-.33-6.95-2.3-7.76-6.06-.83-3.84-2.41-4.83-6.03-3.64-1.32.43-2.98.27-4.37-.06-2.47-.59-3.55-.1-4.14,2.64-.98,4.54-3.88,7.37-8.86,7.64-5.14.27-8.44-2.13-10.1-6.84-.61-1.72-1.21-3.5-3.3-2.41-3.05,1.58-7.69-2.62-9.56,2.69-1.72,4.89-5.02,7.6-10.29,7.59-5.28,0-8.68-2.71-10.23-7.64-.6-1.92-1.63-3.21-3.5-2.41-3.24,1.4-7.78-3.43-10.08,2.29-1.85,4.6-5.35,7.17-10.4,6.2-4.13-.8-6.86-3.55-7.36-7.93-.49-4.33,1.36-7.56,5.25-9.43,2.02-.97,4.26-1.38,3.73-4.48-.49-2.87-2.81-3.02-4.87-3.7-2.3-.76-2.77.68-3.39,2.4-1.58,4.39-4.79,6.53-9.44,5.73-3.59-.61-5.96-2.85-6.4-6.63-.56-4.7,1.48-7.89,6.02-9.2,2.02-.59,2.7-1.43,2.13-3.54-.83-3.06-.83-6.25-.11-9.31.61-2.57-.26-3.61-2.61-4.46-3.93-1.43-5.86-4.51-5.14-8.67.58-3.35,2.8-5.63,6.28-6.13,4.14-.59,7.48,1,8.7,5.07,1.3,4.35,3.84,2.8,6.37,1.89,1.07-.38,1.9-1.21,2.03-2.42.17-1.59-1.21-1.48-2.18-1.92-6.81-3.08-9.88-7.5-9.01-12.86,1.03-6.36,5.12-9.66,13.02-10.04,2.25-.11,2.65-.59,2.66-2.83.02-9.9,5.08-14.85,14.54-14.2,2.17.15,2.75.11,2.81-2.34.17-7.45,3.19-11.43,8.99-12.65,5.73-1.2,9.92,1.08,13.1,8.26,1.69,3.81,4.36,1.47,6.53,2.05,1.91.51,3.58.29,4.26-2.17,1.51-5.48,5.41-8.5,10.91-8.42,5.43.08,9.38,2.97,10.89,8.52.36,1.33.88,2.46,2.61,2.17,1.54-.26,2.02-1.32,2.33-2.69.35-1.54-.15-2.5-1.58-3.04-.69-.26-1.43-.42-2.07-.75-4.16-2.15-6.53-5.57-5.9-10.27.69-5.13,3.88-8.45,9.14-8.77,3.38-.2,4.35-.93,3.83-4.55-.93-6.42,2.24-11.89,8.2-14.09,3.51-1.29,4.64-3.03,4.97-6.71.34-3.75-1.95-4.07-4.17-5.2-4.69-2.38-5.93-6.53-4.62-11.21,1.29-4.6,4.81-6.79,9.61-6.67,1.08.03,2.14.36,3.09.53,1.34-1.12.47-2.19.22-3.16-1.94-7.6.92-13.31,8.25-16.35,2.53-1.05,5.83-7.82,5.1-10.3-.45-1.53-1.7-1.08-2.69-1.29-5.13-1.11-7.54-4.38-7.2-9.52.29-4.41,2.86-7.2,7.16-7.9,5.05-.82,8.53,1.37,10.19,6.31.45,1.34.53,3.29,2.42,3.21,1.52-.06,3.63-.02,4.18-1.99.6-2.15-1.25-2.64-2.78-3.39-7.26-3.58-9.97-9.01-7.83-15.52,1.02-3.1,2.75-6.24,5.86-6.9,6.56-1.4,4.75-6.89,6.06-10.84.61-1.84-1.05-1.92-2.24-2.36-4.77-1.73-7.21-5.07-6.39-10.21.61-3.81,2.89-6.36,6.87-6.88,4.83-.62,8.42,1.35,9.9,6,1,3.11,2.67,2.96,5.02,2.04.87-.34,1.89-.55,2.02-1.6.16-1.33-.77-1.96-1.95-2.24-2.41-.56-4.38-1.87-6.07-3.64-6.25-6.56-3.56-18.01,5.26-19.81,4.71-.96,4.95-3.06,5.44-6.8.5-3.85,1.82-6.49-4.17-6.8-4.21-.21-6.34-4.32-5.65-8.72.68-4.35,3.57-6.9,8.04-6.84,4.43.06,7.07,2.59,7.95,6.99.26,1.31-.83,3.61,1.13,3.72,2.04.12,4.58-.36,5.93-2.25,1.53-2.14,1.3-4.18-1.67-5.1-5.8-1.81-9.06-5.92-8.98-11.83.08-5.72,3.6-9.35,8.98-11.35,5.17-1.93,2.14-7.11,3.76-10.57,1.3-2.79-2.18-2.14-3.55-2.81-3.54-1.73-5.5-4.36-5.09-8.32.41-3.96,2.86-6.42,6.7-7.01,3.94-.6,6.73,1.38,8.32,4.97.92,2.07.98,5.07,4.63,3.5,1.51-.64,3.38-.88,3.64-2.91.31-2.43-1.88-2.28-3.28-2.91-5.35-2.39-8.36-7.03-7.83-12.08.55-5.3,4.3-9.8,9.79-10.48,3.3-.41,3.89-1.62,3.61-4.51-.15-1.58.35-3.29.86-4.84.78-2.39.19-3.35-2.42-3.41-5.05-.12-7.98-3.18-8.35-7.89-.38-4.9,2.64-7.76,7.4-8.83,1.16-.26,3.44.51,2.67-2.17-.83-2.88-.55-6.42-4.85-7.07-2.88-.44-2.92,1.67-3.37,3.32-1.33,4.8-4.36,7.84-9.32,8.05-4.95.21-8.32-2.6-10.01-7.21-.62-1.69-1.06-2.98-3.36-2.6-1.94.32-2.91,1.05-3.16,3.07-.26,2.06-.18,3.4,2.26,4.15,4.55,1.42,6.91,4.66,6.67,9.57-.19,3.95-2.3,6.49-5.85,7.94-4.85,1.98-9.63-.15-12.02-5.65-.89-2.05-1.35-3.87-4.15-2.66-1,.43-2.32.51-2.48,1.83-.17,1.4,1.01,1.75,2.1,2.08,6,1.82,9.23,5.75,9.19,12.15-.04,6.16-3.18,10.09-8.94,11.77-4.34,1.26-2.09,4.93-3.01,7.41-.79,2.12.78,3.3,2.73,4.04,4.93,1.88,7.34,5.54,6.63,10.76-.69,5.06-4.17,7.59-10.86,7.89-2.35.11-2.6.67-2.45,2.89.75,10.65-.3,12.26-10.74,16.84-1.69.74-2.16,1.8-2.19,3.36-.05,2.82-1.23,5.34-2.08,7.99,1.07,1.21,2.4.12,3.58.46,4.24,1.23,6.71,3.73,6.42,8.36-.28,4.41-3.04,6.77-7.1,7.1-4.2.34-6.8-2.18-8.03-6.17-.4-1.3.69-4.17-2.15-3.26-2.15.69-5.71-.12-6.01,3.61-.17,2.09-2.26,4.77,1.42,6.03,2.93,1,5.36,2.73,6.1,5.86,1.05,4.39-.05,8.12-4.43,10.17-4.47,2.09-8.98.3-11.54-4.47-.84-1.57-1.15-4.06-3.6-3.25-2.51.83-5.68-.35-7.31,3.57-4.22,10.16-10.74,12.62-21.77,8.71.41,3.79.9,7.56-2.25,10.35-1.72,1.53-3.69,2.34-6.03,2.31-4.59-.06-8.51-3.76-8.71-8.3-.25-5.66,3.81-8.7,12.56-9.25-.56-1.61-1.17-3.13-1.63-4.7-.73-2.46-2.82-1.87-4.55-2.16-2.08-.35-2.22,1.11-2.81,2.54-2.43,5.88-7.12,9.03-12.16,8.44-4.98-.59-9.25-4.6-10.17-9.57-.98-5.26,1.73-10.17,7.57-12.58,2.51-1.03,3.38-2.27,3.32-4.84-.06-2.55-.2-4.65-3.15-5.65-5.51-1.87-8.52-5.9-8.29-11.69.24-6.01,3.58-10.07,9.52-11.31,3.97-.83,2.44-3.78,3.09-6.02,1.17-4.04,1.58-6.88-4.03-8-3.62-.72-5.43-4.44-4.48-8.37.9-3.73,3.48-6.17,7.43-6.33,4.23-.17,6.84,2.26,8.09,6.2,1.09,3.43,4.88,4.37,7.18,1.55,1.55-1.91,2.04-4.01-1.26-5.06-5.77-1.84-8.91-5.69-8.58-11.92.33-6.42,4.47-9.38,10.17-10.61,2.25-.49,3.13-1.59,3.04-3.77-.3-7.65,3.32-12.74,10.52-14.92,3.21-.97,2.93-3.41,3.43-5.59.66-2.86-1.9-2.5-3.44-3.2-4.63-2.12-7.25-5.7-6.89-10.88.33-4.86,4.16-8.84,9.43-9.22,3.36-.25,3.86-1.48,3.61-4.39-.66-7.61,2.84-12.73,10.01-15.22,1.94-.67,3.21-1.45,3.24-3.77.02-2.25-.44-3.9-2.77-4.78-5.3-2.01-7.84-5.89-7.37-11.58.47-5.61,4.04-8.46,9.12-9.68,2.44-.59,3.29-1.92,3.2-4.31-.31-8.42,3.96-13.59,11.87-15.65,2.62-.68,3.37-2.01,4.02-4.38,2.28-8.33,6.78-12.06,15.31-12.49,2.95-.15,4.24-1.29,5.04-3.93,1.62-5.33,5.15-8.36,10.94-8.32,5.47.04,9.19,2.83,10.75,7.87.87,2.82,2.4,3.33,4.84,3.19,2.48-.14,5.11.64,6.24-2.92,1.6-5.05,5.23-8.09,10.66-8.02,5.34.06,9.06,2.89,10.64,8.04.88,2.88,2.93,3.04,5.21,2.72,2.28-.31,5.19,1.49,6.51-2.28,1.63-4.66,4.64-7.94,10.13-7.79,5.23.14,8.4,2.78,10.28,7.66,1.91,4.96,6.55,1.29,9.74,2.54,2.25.88,2.55-1.08,3.14-2.69,1.63-4.4,4.9-7.02,9.59-7.03,4.74,0,8.14,2.62,9.23,7.24.59,2.5,1.62,2.82,3.77,2.54,1.81-.24,3.74-.4,5.5-.03,3.12.66,4.4-.28,5.34-3.42,1.16-3.86,4.52-5.78,8.55-5.83,3.8-.05,6.89,1.71,8.39,5.24,1.12,2.65,2.32,4.76,5.54,3.87,3.63-1,8.44,2.83,10.77-4.04,2.22-6.53,12.7-6.62,15.61-.32,1.82,3.93,3.73,4.71,7.75,4.54,4.23-.18,7.27.26,9.64-4.87,3.04-6.58,12.68-5.37,15.92,1.47.94,2,1.23,4.66,4.3,3.32,3.49-1.53,8.87,3.53,10.88-3.53,1.15-4.04,4.83-6.13,9.02-6.07,3.96.05,6.9,2.25,8.66,5.89.87,1.81.87,4.79,4.19,3.7,3.25-1.07,7.91,2.23,9.69-3.64,1.36-4.46,5.17-6.82,9.77-6.8,4.83.03,8.63,2.52,10.01,7.25.94,3.21,2.83,3.3,5.37,3.1,2.62-.2,5.47.83,6.66-3.1,1.56-5.13,5.47-7.84,10.83-7.74,5.43.09,9.04,3.16,10.43,8.29.69,2.54,1.68,3.41,4.15,2.86.7-.16,1.52-.22,2.19-.01,4.17,1.29,7.48,2.07,8.68-4.13.67-3.45,4.67-4.37,8.29-3.78,3.74.6,5.96,3.02,6.56,6.56.65,3.86-1.3,6.62-4.56,8.7-1.66,1.06-5.73.16-4.22,4.16,1.4,3.73-2.54,9.37,4.7,11.2,4.61,1.16,6.91,5.31,6.62,10.33-.29,4.98-2.81,8.62-7.66,9.56-4.55.88-5.73,2.99-5.74,7.44-.02,5.91-3.66,9.99-9.26,11.73-3.08.95-3.7,2.64-4,5.55-.34,3.31,1.39,3.87,3.79,4.87,4.38,1.81,6.63,5.55,5.94,10.17-.74,4.97-3.82,8.49-9.19,8.72-3.23.14-4.44.64-3.94,4.41.96,7.17-2.11,12.22-9.01,14.54-3.92,1.32-4.12,4.07-4.74,7.09-.75,3.64,2.42,3,4.14,3.84,4.24,2.08,6.74,5.4,6.17,10.09-.56,4.6-3.43,8.07-8.16,8.48-4.17.35-4.59,1.73-3.97,5.53,1,6.1-2.7,12.01-9.12,14.11-3.85,1.26-3.81,3.9-4.46,6.68-.83,3.56,2.42,3.09,4.09,4,4.78,2.59,6.32,6.73,5.15,11.64-1.09,4.6-4.44,7.27-9.31,7-3.37-.18-4.35.42-3.88,4.18,1.05,8.29-2.14,12.92-10.24,15.13-2.94.8-3.61,2.09-3.86,4.83-.7,7.54-5.11,12.4-12.42,13.25-3.28.38-4.19,1.89-5.02,4.63-2.48,8.22-7.59,11.65-16.18,10.69-2.84-.32-3.81-.01-4.17,3.07-.66,5.72-4.43,9.15-9.2,9.21-4.95.06-9.29-3.75-9.75-9.38-.23-2.75-.6-3.14-3.4-2.85-11.52,1.2-16.93-3.73-17.39-15.69-.09-2.27-.97-2.62-2.81-3.11-7.11-1.88-9.96-4.94-10.21-10.48-.25-5.65,2.17-8.74,9.03-11.49,1.32-.53,3.09-.63,2.81-2.72-.25-1.85-.35-3.65.22-5.46.53-1.72.98-3.46,1.47-5.24-1.8-.22-3.47-.17-4.97-.64-4.02-1.27-6.15-4.27-5.71-8.37.43-4.08,3.02-6.66,7.33-6.92,4.5-.27,7.3,1.83,8.42,6.26.33,1.33-.88,4.15,1.87,3.51,2.17-.51,5.54.16,6.17-3.43.49-2.8-1.62-3.2-3.54-3.98-5.17-2.12-7.74-6-7.43-11.66.3-5.47,3.26-9.06,8.39-10.32,2.96-.73,3.74-1.98,3.87-4.84.39-8.32,3.84-12.73,11.8-15.29,2-.64,3.2-1.4,3.47-3.6.3-2.37-.86-3.18-2.89-3.84-4.7-1.52-7.45-4.99-7.53-9.84-.08-5.07,2.61-8.71,7.54-10.41,1.99-.69,3.16-1.69,2.67-4.04-.53-2.5-2.39-3.14-4.46-3.36-2.78-.29-1.87,2.09-2.29,3.47-1.25,4.09-3.84,6.66-8.21,7.05-4.56.41-7.9-1.52-9.71-5.72-.86-1.99-.91-4.53-4.06-4.27-2.93.25-3.89,2.21-4.54,4.75-.49,1.94-1.49,3.75-2.27,5.61-.97.91-1.93,1.82-2.9,2.74Z"/>
        <path d="M442.13,369.32c-2.71,1.12-5.01,3.14-8.03,3.54-2.76.37-2.63,2.79-3.09,4.63-.55,2.23,1.38,2.69,2.88,3.34,4.36,1.89,6.9,5.15,6.25,9.92-.6,4.41-3.47,7.46-7.99,7.99-4.7.55-8.2-1.63-9.93-6.17-.63-1.64-1.25-3.22-3.37-2.92-1.22.17-2.79.34-3.11,1.84-.32,1.53,1.2,1.55,2.17,1.91,5.68,2.14,9.32,5.87,9.37,12.25.06,6.59-3.41,10.52-9.49,12.65-4.39,1.54-2.76,5.96-3.72,9.06-.93,3.01,2.32,2.07,3.69,2.73,3.96,1.88,6.1,4.94,5.65,9.2-.42,3.97-2.74,6.85-6.96,7.5-4.5.69-7.89-.88-9.91-5.18-.64-1.36-.25-3.77-2.49-3.79-1.71-.02-4-.26-4.82,1.87-1.07,2.78,1.35,2.75,3.03,3.37,5.45,2.01,8.35,6.07,8.34,11.77-.02,5.51-2.88,9.8-8.2,11.2-5.65,1.49-2.87,5.85-3.92,8.88-1.05,3.03,1.11,3.6,3.23,4.59,3.92,1.82,5.89,5.05,4.95,9.41-.81,3.75-3.26,6.17-7.25,6.52-4.41.39-7.4-1.61-9.04-5.71-1.18-2.96-4.82-3.78-6.77-1.34-2.1,2.62.29,2.69,2.08,3.36,8.08,3.04,11.1,11.51,6.71,18.39-1.56,2.44-3.79,3.95-6.45,4.94-1.62.6-4.16-.29-4.7,2.06-.73,3.19-1.09,6.48-1.32,9.75-.08,1.16,1.35.85,2.2,1.04,5.95,1.38,8.78,4.59,8.1,9.12-.63,4.2-4.4,7.28-8.58,7-4.71-.32-7.36-3.76-7.49-9.69,0-.33-.15-.67-.29-1.25-1.04.35-2.04.68-3.04,1.03-1.86.65-4.16.83-4.22,3.57-.06,2.44,1.99,2.77,3.63,3.54,5,2.36,7.61,6.24,7.32,11.85-.27,5.18-3.03,8.79-7.84,10.25-2.99.9-3.66,2.33-3.34,5.08.15,1.23-.12,2.6-.55,3.78-.97,2.68-.79,4.37,2.44,5.34,4.13,1.24,5.65,4.48,5.01,8.66-.58,3.84-3.25,5.85-6.79,6.21-3.98.41-6.44-2.06-8.03-5.54-.52-1.14.11-3.46-2.33-2.89-1.93.45-4.3.79-5.5,2.09-1.51,1.63.22,3.01,1.94,3.54,3.15.97,5.59,2.81,7.25,5.61,3.88,6.53.3,15.48-7.29,17.03-3.61.74-4.94,1.74-4.78,5.51.28,6.72-3.47,11.11-9.54,13.36-2.53.94-4.27,2.13-4.5,4.86-.27,3.18,2.75,2.42,4.3,3.25,4.5,2.39,7.14,5.99,6.92,11.04-.23,5.29-3.32,8.85-8.31,10.62-1.94.68-4.59.12-4,3.77.45,2.79.29,5.24,4.11,5.94,4.52.83,7.37,4.11,8.6,8.47.87,3.11,3.25,2.3,5.31,2.64,2.32.38,3.14-.83,4-2.76,3.01-6.79,8.34-9.71,14.32-8.13,5.88,1.56,8.81,6.21,8.56,13.63-.03.89-.1,1.77-.16,2.62,2.06,0,3.86-.1,5.65.02,5.62.38,10.42,5.15,10.88,10.71.41,4.93-3.26,10.77-8.21,11.73-3.37.66-5.03,1.43-3.96,5.14.28.96-.11,2.2-.43,3.24-.84,2.64-.95,4.15,2.71,4.82,4.67.85,7.23,4.37,6.74,9.31-.47,4.64-3.26,7.35-7.97,7.62-4.94.29-7.99-2.19-9.16-6.97-.31-1.28.34-3.37-2.11-2.95-1.93.33-4.21.46-4.83,2.93-.51,2.02.85,2.87,2.42,3.76,8.69,4.9,10.8,12,5.57,18.32-3.71,4.48-8.73,3.99-13.69,3.53-1.11,1.55,0,2.94.04,4.33.16,5.95-3.06,10.68-8.42,12.12-5.33,1.43-10.6-1.12-13.37-6.28-.85-1.59-.48-4.47-3.52-4.11-1.51.18-1.95,1.54-2.16,2.86-.44,2.69,1.51,3.32,3.44,4.2,4.14,1.89,6.16,5.19,5.54,9.77-.62,4.6-3.59,7.31-7.97,7.99-4.56.71-7.71-1.69-9.7-5.73-.84-1.71-1.27-4.62-4.01-3.17-3.25,1.72-8.61-3.36-10.27,3.76-.98,4.19-4.79,6.36-9.3,6.52-4.75.17-8.23-1.96-10.09-6.27-.99-2.28-1.44-4.79-4.78-3.77-3.1.94-7.63-2.95-9.27,3.36-1.13,4.37-5.08,5.97-9.64,5.71-4.45-.26-7.6-2.7-8.38-6.74-.76-3.91-2.45-4.25-5.63-3.47-1.2.29-2.67.26-3.82-.15-3.33-1.18-4.39.09-5.16,3.32-.99,4.15-4.23,6.54-8.5,6.65-4.28.11-7.72-2.11-8.77-6.25-.94-3.71-2.34-4.92-6.03-3.68-1.3.44-2.98.22-4.36-.16-2.52-.69-3.59-.11-4.13,2.62-.92,4.63-3.92,7.4-8.8,7.7-4.82.29-8.1-1.93-9.89-6.36-.69-1.71-1.18-4.02-3.67-2.76-3.1,1.56-7.93-2.88-9.77,3.16-1.35,4.46-4.83,6.95-9.56,7.02-4.96.07-8.29-2.56-10.24-7.03-.68-1.56-.82-4.43-3.36-3.02-3.25,1.8-8.11-4.02-10.21,2.61-1.52,4.8-5.37,6.88-10.38,6.34-4.65-.5-7.31-3.56-8.12-7.86-.95-5,1.58-8.47,6.06-10.57,1.68-.79,3.46-1.35,3.27-3.81-.15-1.92-1.13-3.04-2.84-3.66-2.06-.74-3.65-1.3-4.24,2-.96,5.3-4.64,7.81-9.99,7.35-4.86-.41-7.75-3.28-8.22-8.13-.51-5.35,2.02-9.01,7.27-10.07,2.6-.53,2.97-1.53,2.38-3.69-.29-1.06-.83-2.26-.57-3.22,1.21-4.59-.02-7.24-4.75-9.14-3.63-1.46-5.09-5.36-4.06-9.37.99-3.84,3.49-6.45,7.68-6.93,4.63-.53,8.06,1.45,9.64,5.69,1.02,2.74,1.7,4.73,5.18,3.38,1.08-.42,2.14-.51,2.27-1.92.12-1.37-.75-1.97-1.83-2.41-.68-.27-1.41-.45-2.08-.75-5.53-2.49-8.44-7.19-7.85-12.65.57-5.32,4.67-10.12,10.3-10.74,3.77-.41,4.65-1.69,4.9-5.31.54-7.95,6.69-13.2,14.62-12.37,3.39.36,3.34-.67,3.58-3.32.53-5.89,4.23-9.71,9.56-10.64,5.14-.9,10.2,1.63,12.12,7.33,1.33,3.93,3.72,2.94,6.34,3.17,2.74.23,4.12-.28,5.25-3.22,2.78-7.24,8.3-8.89,17.3-5.89-2.84-10.42-1.1-13.66,9.9-17.61,2.21-.79,2.12-2.17,2.03-3.86-.41-7.67,3.15-12.66,10.4-14.93,2.42-.76,3.07-2.32,3.08-4.56,0-1.62.35-2.96-1.69-4.08-7.27-3.99-9.23-7.34-8.07-12.59,1.18-5.37,5.1-7.93,13.02-8.52-1.19-11.38-.21-13.2,10.87-19.09,2.79-1.48,1.91-4.08,2.44-6.27.58-2.38-1.12-2.48-2.73-3.11-5.16-2.01-8.02-6.53-6.99-11.13,1.13-5.08,4.34-8.2,9.73-7.98,3.72.15,3.52-1.66,3.33-4.38-.58-8.48,2.05-12.77,10.22-15.29,3.59-1.11,2.53-3.5,2.89-5.58.29-1.71.7-3.24-1.85-4.36-6.7-2.94-8.89-6.55-7.77-11.54,1.09-4.84,5.41-8.92,12.26-7.5.3.06.67-.19,1.01-.3-2.54-11.36-.81-14.91,10.42-19.96,3.7-1.67,2.51-5,3.27-7.59.71-2.41-1.81-2.11-3.28-2.58-4.79-1.54-7.55-4.83-7-9.89.52-4.73,3.6-7.81,8.39-8.11,4.99-.31,8.42,2.26,9.63,7.27.39,1.61.18,3.66,2.76,2.92,1.46-.41,3.73.07,3.99-2.18.26-2.23-1.88-2.44-3.34-3-5.59-2.15-8.66-6.12-8.69-12.15-.02-6.05,3.04-10.42,8.67-12.09,5.05-1.5,3.22-5.51,4.12-8.53.91-3.05-1.91-3.01-3.56-3.83-3.88-1.92-6.04-4.97-5.39-9.3.64-4.25,3.41-7.02,7.67-7.62,4.34-.61,7.38,1.64,9.26,5.49.32.66.59,1.35.83,2.05.67,1.94,2.03,1.8,3.57,1.27,1.17-.4,2.83-.33,2.8-2.07-.02-1.73-1.69-1.62-2.85-2.03-5.68-1.99-8.91-6.18-8.98-12-.07-6.09,3.19-10.72,9.21-12.32,5.09-1.35,2.51-5.36,3.53-8.08,1.11-2.94-1.47-3.16-3.25-3.93-3.8-1.65-5.58-4.61-5.51-8.72.08-4.25,2.53-6.71,6.2-8.28,2.86-1.23,3.97-6.16,1.58-8.03-1.7-1.33-4.03-2.64-5.07.98-.1.35-.2.71-.29,1.07-1.27,5.04-4.43,8.18-9.65,8.37-4.99.18-8.15-2.86-10.06-7.28-.61-1.4-.46-3.31-3.13-2.7-2.17.49-3.02,1.48-3.45,3.57-.41,2.02-.67,3.64,1.76,4.39.7.22,1.43.43,2.05.81,3.44,2.12,5.32,5.04,4.39,9.24-.86,3.9-3.44,6.05-7.3,6.45-4.19.44-7.61-1.52-8.53-5.45-.98-4.21-2.93-3.78-5.78-2.54-1.08.47-1.89,1.15-2.05,2.38-.21,1.62,1.14,1.64,2.13,1.98,5.88,2.02,9.37,6.02,9.03,12.34-.33,6.04-3.99,9.78-9.83,11.09-2.23.5-2.44,1.6-2.38,3.48.05,1.62-.09,3.36-.64,4.87-.95,2.63-.65,3.73,2.49,4.22,4.57.71,7.18,3.91,6.98,8.55-.18,4.32-2.67,7.23-7.14,7.83-4.91.66-8.11-1.61-9.7-6.26-.43-1.26.01-3.44-2.22-3.08-1.67.27-4.14-.21-4.7,2.05-.54,2.21,1.69,2.53,3.15,3.1,4.65,1.81,7.74,4.96,8.54,9.97,1.07,6.72-2.28,12.47-8.92,14.63-2.61.85-3.82,1.67-3.97,4.69-.36,7.65-4.57,12.77-11.93,14.74-4.08,1.09-4,4.34-4.83,7.18-.58,1.98,1.24,1.74,2.43,2.02,4.44,1.05,6.53,3.99,6.25,8.43-.26,4.23-2.81,6.83-6.88,7.46-4.21.66-6.9-1.74-8.79-5.3-.66-1.24.1-4.14-2.53-3.26-2.78.93-6.4-.24-8.29,3.16-6.36,11.41-8.62,12.48-21.4,10.23-.17,8.35-3.15,12.19-9.3,11.98-4.81-.16-8.75-4.41-8.43-9.1.38-5.78,4.89-8.6,12.91-7.89-.47-1.43-.9-2.76-1.34-4.08-.62-1.85-1.48-3.26-3.84-3.23-2.29.03-3.18,1.32-3.91,3.19-1.92,4.89-5.32,7.82-10.82,7.9-5.67.08-10.34-3.1-11.81-8.13-1.64-5.6.73-11.27,6.01-14.08,2.19-1.17,4.84-1.42,4.91-5.02.08-3.87-2.71-4.25-5.12-5.46-4.68-2.36-7.17-6.17-7.13-11.51.04-5.57,2.52-10.06,7.71-11.57,5.35-1.55,4.34-5.7,5.14-9.14.74-3.2-2.44-3.09-4.18-4.13-3.58-2.14-5-5.28-4.32-9.35.66-3.95,3.3-6.21,7-6.88,4.05-.73,7.11,1.21,9.18,4.7.37.63.68,1.33.85,2.03.53,2.23,1.94,2.37,3.78,1.75,1.31-.44,3.26-.08,3.26-2.2,0-1.96-1.92-2.05-3.2-2.52-5.51-2.03-8.46-6.13-8.34-11.77.13-5.63,3.19-9.82,8.86-11.31,3.05-.8,4.36-2.35,4.12-5.44-.24-3.07,1.62-5.61,2.32-8.45,1.23-1.22,2.45-2.44,3.67-3.66,1.37-.53,2.73-1.09,4.11-1.59,2.22-.81,4.74-1.22,4.88-4.39.14-3.16-2.75-2.47-4.29-3.32-4.5-2.47-6.84-6.03-6.47-11.21.37-5.19,3.19-8.8,8.09-10,3.37-.83,4.58-1.76,4.59-5.58.01-6.62,3.59-11.47,10-13.8,2.17-.79,3.93-1.51,4.26-4.32.38-3.26-2.22-2.91-3.81-3.66-4.87-2.28-7.56-6.1-7.13-11.37.42-5.17,3.32-9.28,8.62-10.21,3.7-.65,4.47-2.3,4.29-5.52-.32-5.75,2.29-10.84,7.33-12.53,6.51-2.18,8.48-6.63,9.61-12.33-6.5-1.38-9.6-4.11-8.85-8.2.67-3.68,2.99-5.88,6.89-5.88,4.11,0,6.29,2.9,6.92,9.14,3.77-1.53,7.52-3.15,11.68-2.4,2.31.42,2.61-.91,3.11-2.74,1.41-5.17,4.95-8.21,10.34-8.4,5.43-.19,9.14,2.72,10.83,7.76.79,2.37,1.83,3.48,4.28,2.99,2.47-.49,5.8,1.51,7.1-2.38,1.71-5.11,5.27-8.17,10.57-8.22,5.33-.04,8.97,3.02,10.56,8.15.92,2.97,3.21,2.64,5.38,2.47,2.36-.18,5.27,1.26,6.57-2.32,1.74-4.75,4.92-7.64,10.33-7.54,5.13.1,8.22,2.77,9.78,7.43.85,2.53,2.78,2.8,4.88,2.37,2.76-.56,6.46,2.04,8.13-2.39,1.65-4.37,4.81-7.11,9.53-7.13,4.74-.02,7.93,2.66,9.38,7.18,1.29,4.01,4.55,2.06,7.01,2.41,3.69.52,6.33.37,8.26-4.25,2.76-6.6,11.78-6.42,15.82-.4,1.07,1.6.96,4.36,3.48,4.59,3.65.32,7.33-.12,10.99.62.98.2,1.02-1.3,1.23-2.17,1.09-4.51,3.92-6.96,8.6-7.07,4.36-.1,7.57,1.86,8.88,6.02.87,2.76,2.35,3.17,4.89,2.82,2.16-.3,4.43-.22,6.61.08,2.05.28,2.8-.29,3.44-2.31,1.43-4.51,4.61-7,9.56-6.65,4.92.35,7.77,3.09,8.46,7.88.28,1.96,1.05,2.56,2.88,2.15,2.72-.62,5.44-.79,8.19-.09,2.54.64,2.4-1.25,2.78-2.9,1.13-4.95,4.56-7.72,9.41-7.85,4.88-.13,8.35,2.59,9.76,7.42.48,1.63.85,4.01,2.86,2.95,2.99-1.58,7.54,2.43,9.16-2.42,1.76-5.29,4.98-8.83,10.54-9.05,5.59-.23,9.27,2.99,11.03,8.3.95,2.88,3.33,2.38,5.51,2.38,2.22,0,4.42.25,5.35-2.63,1.78-5.52,5.47-8.54,11.5-8.36,5.54.17,8.85,3.17,10.56,8.16.72,2.1,1.97,2.88,4.13,2.73,4.56-.32,10.04,2.82,12.42-4.59.82-2.55,4.52-2.85,7.4-1.82,2.89,1.03,4.45,3.2,4.69,6.21.25,3.06-.96,6.06-3.79,6.68-4.94,1.08-4.38,3.64-3.05,7.05.32.82.42,1.87.23,2.72-.95,4.24.54,6.48,4.69,8.26,3.99,1.72,5.62,5.81,4.69,10.24-.97,4.62-4.11,7.31-8.75,8.03-1.6.25-3.28.04-5.02.04-.88,1,.05,2.01.26,2.99,1.42,6.66-1.34,12.99-7.75,15.21-4.1,1.42-4.35,3.89-4.87,7.38-.55,3.71,1.67,4.12,4,5.33,3.55,1.84,5.55,4.98,4.84,9.09-.68,3.93-2.99,6.8-7.12,7.47-4.23.69-7.61-.83-9.72-4.7-.44-.8-.79-1.68-1.02-2.56-.55-2.14-2.09-1.62-3.53-1.41-1.35.2-2.66.64-2.81,2.18-.19,1.93,1.68,1.67,2.73,2.07,5.58,2.15,8.73,6.04,8.73,12.11,0,6.12-3.22,10.29-8.93,11.84-5.72,1.55-2.4,6.11-3.63,9.1-1.4,3.41,2.04,2.55,3.56,3.27,4.21,2.02,6.05,5.38,5.26,9.89-.71,4.06-3.3,6.52-7.49,6.93-4.59.45-8.11-1.39-9.4-5.88-.72-2.5-1.07-4.21-4.16-2.9-1.19.51-2.68.67-2.7,2.28-.02,1.35,1.33,1.64,2.32,2.01,6.05,2.23,9.56,6.55,9.1,12.97-.43,6.08-4.11,9.92-10.22,11.53-5.04,1.33-2.44,6.24-3.7,9.37-1.02,2.54,2.01,1.71,3.35,2.14,4.61,1.5,7.15,4.6,6.73,9.48-.4,4.59-3.06,7.47-7.79,7.85-4.87.39-8.07-1.93-9.59-6.57-.48-1.48.6-4.24-2.68-3.51-1.75.39-3.85.56-4.32,2.81-.64,3.02,2.05,2.95,3.75,3.74,5.35,2.51,8.19,7.1,7.57,12.24-.68,5.69-4.18,9.79-10.26,10.7-3.53.53-4.52,1.77-4.63,5.22-.23,7.31-4.73,11.87-11.96,12.75-1.98.24-3.85-.09-4.58,2.76-3.09,11.98-8.13,14.82-20.08,11.64-.9,1.43.23,2.79.2,4.19-.08,5.17-3.57,9.28-8.61,9.89-4.73.57-9.64-3.02-9.94-8.21-.22-3.83-1.25-4.19-4.81-3.8-10.35,1.15-16.21-4.36-16.31-15.09-.02-2.47-.66-3.01-2.94-3.38-7.04-1.14-10.85-5.06-11.12-10.89-.26-5.7,3.38-10.56,9.95-11.99,4.76-1.04,2.54-4.47,3.25-6.94,1.02-3.54.78-5.4-3.88-5.94-4.92-.57-6.72-4.77-6.11-9.57.6-4.68,3.56-7.24,8.18-7.42,4.93-.19,7.98,2.54,9.01,7.24.47,2.17-.09,4.87,3.6,3.15,1.43-.66,3.4-.6,3.44-2.92.04-2.2-1.7-2.57-3.16-3.29-7.66-3.77-10.44-9.75-7.64-16.44,1.43-3.42,3.85-5.95,7.46-6.84,3.4-.83,4.73-2.53,4.75-6.12.01-2.46,1.33-4.92,2.06-7.38,1.36-1.33,2.71-2.66,4.07-3.99,2.04-.82,4.07-1.67,6.12-2.47,1.41-.55,2.74-1.1,2.88-2.92.15-1.92-1.08-2.47-2.59-2.98-5.49-1.84-8.66-5.67-8.66-11.47,0-5.59,3.12-9.24,8.35-11.08,1.44-.51,2.92-1.02,2.73-2.91-.21-2.01-2.06-1.72-3.39-2.16-2.04-.69-2.89-.02-3.44,2.11-1.13,4.37-4.03,6.86-8.72,7.02-4.73.16-7.56-2.33-9.19-6.49-.58-1.47-.47-3.63-2.92-3.14-1.92.39-3.93.66-4.71,3.15-.87,2.79-2.19,5.44-3.31,8.15-.5.48-1,.95-1.49,1.43Z"/>
        <path d="M945.03,451.28c-2.34,1.05-4.62,2.3-7.05,3.11-2.35.78-2.22,2.66-2.52,4.42-.34,2,1.09,2.37,2.55,2.92,4.93,1.85,7.33,5.4,6.64,10.72-.6,4.64-3.58,7.35-7.95,7.98-5.18.75-8.95-1.59-10.62-6.68-.68-2.08-1.67-3-4-2.62-2.04.33-2.72,1.32-2.99,3.24-.34,2.44,1.21,2.48,2.86,3.04,5.21,1.77,7.64,5.59,7.1,11.06-.51,5.09-3.82,8.02-8.52,8.87-5.15.93-8.99-1.55-11.01-6.33-1.03-2.44-1.95-4.51-5.03-3.12-2.84,1.28-2.37,4.32-2.95,6.65-.35,1.4,1.47,1.17,2.47,1.37,4.54.92,6.6,3.82,6.25,8.31-.31,4.04-2.68,6.41-6.73,6.73-4.49.36-7.62-1.65-8.28-6.21-.37-2.53-1.01-3.23-3.42-2.19-1.14.49-2.54.79-3.76.66-5.07-.55-9.15-.53-11.38,5.74-1.32,3.69-6.02,3.92-9.77,2.58-3.67-1.31-5.6-4.36-5.56-8.13.04-4.05,2.38-6.81,6.19-8.32,1.3-.51,3.81.44,3.39-2.4-.27-1.8-.48-3.86-2.43-4.66-2-.82-3.97-1.76-4.99,1.77-1.5,5.2-5.42,7.97-10.88,7.3-4.61-.57-7.72-3.42-8.47-8.21-.87-5.54,1.66-9.2,6.71-11.26,1.49-.61,3.79-.92,2.7-3.16-1.5-3.08,2.57-7.69-2.71-9.57-5.41-1.93-8.1-5.8-7.46-11.44.62-5.39,4.09-8.55,9.4-9.36,2.04-.31,2.91-.87,2.71-3.08-.8-8.71,2.83-14.59,11.41-17.04,2.83-.81,2.71-3.03,3.03-5.23.26-1.81-.5-2.47-2.04-3.26-6.79-3.5-8.9-7.65-6.9-12.95,2.01-5.33,6.2-7.03,14.34-5.48-2.05-5.45-2.88-10.72,1.19-15.43,1.72-1.99,3.74-3.52,6.32-4.25,2.1-.6,3.53-1.61,3.52-4.2,0-2.44-.99-3.79-3.22-4.44-5.17-1.52-8.01-5.22-8.77-10.32-.65-4.4-3.93-2.85-6.36-3.34-3.34-.67-2.78,1.77-3.1,3.72-1.18,7.08-5.89,9.96-15.61,9.47,1.57,8.83-.99,15.29-10.46,17.49-1.82.42-2.1,1.58-2.14,3.26-.15,7.93-4.06,13.17-11.64,15.57-1.67.53-3.09.98-3.19,3.15-.09,2.11,1.09,2.84,2.81,3.47,5.24,1.93,8.21,5.84,8.02,11.34-.19,5.81-3.72,9.55-9.34,10.83-2.34.53-2.96,1.42-2.76,3.69.42,4.86-1.53,8.97-4.53,12.67l-.26.26c-1.61.89-3.27,1.69-4.81,2.69-1.95,1.26-5.61.18-5.63,4.11-.02,3.39,3.05,3.22,4.96,4.32,6.88,3.96,8.7,14.49,1.99,17.87-6.75,3.4-9.16,7.72-10.45,14.47-.77,4-4.54,6.6-8.68,7.79-2.53.72-4.01,1.83-4.25,4.83-.26,3.28,2.13,2.79,3.8,3.57,4.38,2.05,7.01,5.45,6.91,10.37-.09,4.91-2.56,8.56-7.33,9.91-3.47.98-4.15,2.52-4.14,6.12.02,7.02-3.6,12.24-10.46,14.71-2.28.82-4.5,1.32-4.79,4.47-.33,3.55,2.73,2.89,4.36,3.88,4.01,2.43,6.2,5.85,5.72,10.51-.48,4.63-3.06,8.13-7.72,8.97-4.31.77-5.4,2.66-5.31,6.95.14,6.68-3.91,10.87-10.17,12.82-2.34.73-3.2,2.13-3.19,4.47.01,1.96.35,3.41,2.31,4.54,6.69,3.87,8.63,7.36,7.37,12.47-1.31,5.31-5.42,7.91-13.09,8.06,2.17,9.39-.7,16.18-10.18,19.55-2.48.88-2.58,3.42-2.77,5.6-.18,2.1,1.5,2.63,3.12,3.25,4.39,1.69,6.93,4.96,6.98,9.65.05,4.92-2.47,8.32-7.12,10.12-1.49.58-3.35.96-3,3.28.22,1.5,1.2,2.28,2.59,2.47,2.63.36,2.14-2.1,2.73-3.38,2.15-4.63,5.68-7.42,10.71-7.41,5.04,0,9.14,2.63,10.52,7.49,1.69,5.99,6.52,2.2,9.61,3.69,2.42,1.17,2.76-1.64,3.53-3.17,2.1-4.19,5.31-6.75,10.13-5.99,4.41.7,7.37,3.58,8.1,7.99.79,4.77-1.64,8.12-5.9,10.15-1.84.88-4.37,1.63-3.15,4.18,1.4,2.92-2.49,7.43,3.37,9.1,5.37,1.53,7.76,5.87,7.28,11.58-.47,5.53-3.66,8.85-8.85,9.88-3.37.67-4.58,2.02-4.51,5.47.14,6.45-3.24,11.13-9.24,12.93-5.03,1.5-3.9,5.64-5.01,8.79-1.21,3.47,2.26,2.99,3.91,3.99,3.04,1.85,4.21,4.59,3.66,7.98-.57,3.5-2.83,5.57-6.31,5.99-3.48.43-5.9-1.22-7.69-4.23-.84-1.41-.08-4.91-3.44-3.66-2.82,1.05-6.44.16-7.9,4.63-2.67,8.15-7.18,10.95-15.79,10.82-2.35-.03-3.73.19-4.29,2.89-1.09,5.21-4.36,8.58-9.81,8.97-5.43.39-9.15-2.34-10.98-7.44-1.92-5.36-6.47-1.28-9.55-2.72-2.35-1.09-2.36,1.35-2.94,2.82-1.7,4.34-4.95,7.05-9.58,7.18-4.9.13-8.31-2.55-10.09-7.16-.66-1.7-1.15-4.13-3.61-2.83-3.26,1.72-8.18-3.76-10.29,2.71-1.39,4.28-4.82,6.65-9.36,6.23-4.96-.46-8.1-3.47-8.7-8.5-.28-2.37-.9-3.38-3.33-2.4-.5.2-1.1.33-1.63.26-5.28-.65-8.78-.42-11.03,6.37-2.26,6.81-12.16,5.58-15.84-1.21-.85-1.57-.8-4.89-3.72-3.55-3.53,1.62-9.02-3.17-10.99,3.82-1.2,4.26-5.09,6.36-9.49,6.24-4.4-.12-7.52-2.63-9.41-6.64-.69-1.45-.3-4.51-3.11-3.34-3.15,1.3-7.82-2.57-9.71,3.33-1.64,5.13-5.77,7.45-11.24,6.93-5.27-.5-8.55-3.58-9.41-8.59-.57-3.37-2.39-3.48-4.99-3.56-10.61-.36-16.41-6.65-15.39-16.97.3-2.99-.76-3.82-3.32-4.45-5.07-1.25-8.13-4.62-7.8-9.92.34-5.44,3.52-8.82,9.19-9.14,2.7-.15,2.66-1.41,2.49-3.62-.7-9.41,1.63-13.46,10.42-17.09,3.46-1.43,3.05-4.13,3.75-6.66.8-2.86-1.5-2.72-3.08-3.42-4.15-1.85-6.31-5.01-5.74-9.64.54-4.38,3.24-7.1,7.45-7.76,4.55-.71,7.73,1.66,9.71,5.69.77,1.56.82,3.7,3.6,3.2,2.54-.46,3.75-1.87,4.43-4.23.7-2.41-.37-3.11-2.46-3.83-4.28-1.48-6.73-4.59-6.1-9.29.55-4.09,3.15-6.7,7.21-7.29,4.68-.69,7.67,1.76,9.42,5.97.51,1.23.54,3.59,2.6,2.64,3.37-1.56,8.39,1.17,10.34-3.37,2.29-5.33,5.88-8.63,11.64-8.51,5.78.13,9.49,3.59,11.14,9.1.44,1.48,1.05,2.21,2.69,1.99,1.89-.26,3.7-.51,4.33-2.72,1.67-5.81,5.44-9.22,11.27-11,3.71-1.13,2.36-5.32,3.35-8.08.88-2.47-1.75-2.34-3.07-2.91-3.99-1.73-5.46-4.74-4.78-8.89.59-3.57,3.05-5.54,6.38-5.97,3.93-.5,7.19,1.52,8.14,5.19,1.6,6.2,5.28,2.27,7.5,1.51,2.17-.75.97-2.75-.83-3.53-2.55-1.1-5.07-2.16-6.86-4.44-5.31-6.74-2.01-16.79,6.6-18.77,3.14-.72,3.8-1.79,3.56-4.63-.33-3.85,1.69-7.07,3.35-10.36.87-.92,1.74-1.83,2.61-2.75,1.2-.46,2.42-.88,3.6-1.38,2.28-.96,5.35-1.07,5.51-4.52.16-3.39-3.13-2.49-4.8-3.51-3.93-2.43-6.27-5.61-6.19-10.33.09-4.89,2.41-8.33,6.8-10.49,1.56-.77,4.09-.66,4.24-2.97.25-3.66.53-7.29,1.2-10.9.06-.33-2.06-1.14-3.21-1.62-3.38-1.39-4.72-3.95-4.33-7.47.35-3.12,2.12-5.07,5.23-5.54,3.72-.57,6.41.8,7.94,4.41,1.25,2.95,6.31,3.59,8.33,1.03,1.37-1.74,1.37-3.23-1.26-4.11-5.69-1.89-9.13-5.84-8.54-11.98.61-6.34,4.72-9.73,10.99-10.44,2.3-.26,2.39-1.57,2.29-3.49-.41-7.58,3.06-12.85,10.29-15.05,3.14-.96,3.17-2.9,3.53-5.34.41-2.79-1.46-2.73-3.21-3.36-4.64-1.68-7.1-5.12-7.13-10.09-.04-5.23,2.53-8.97,7.49-10.34,3.51-.97,4.31-2.42,4.12-6.04-.34-6.67,4.15-12.39,10.62-14.57,2.15-.72,4.28-.96,4.49-3.94.2-2.81-1.79-3.21-3.64-4.03-4.73-2.09-7.23-5.81-6.72-10.93.54-5.38,3.96-8.85,9.2-9.62,3.65-.54,4.18-1.72,4.03-5.29-.26-6.23,2.93-11.13,8.98-13.17,3.34-1.13,3.96-3.29,4.4-6.1.51-3.28-2.24-3.25-4.05-4.25-4.06-2.24-6.4-5.63-5.9-10.36.49-4.67,3.2-7.71,7.78-8.99,2.11-.59,4.47-.75,3.76-4.09-.62-2.95,1.18-6.72-3.85-7.8-4.97-1.06-8.03-4.48-8.36-9.7-.15-2.46-1.06-3.34-3.38-2.91-2.13.39-5.28-1.09-5.74,2.58-.95,7.56-5.05,11.57-12.69,11.85-1.64.06-2.18.86-2.21,2.45-.12,7.46-3.52,12.65-10.82,14.84-2.9.87-2.5,3.15-2.9,5.28-.5,2.68,1.28,2.87,3.08,3.54,4.77,1.78,7.7,5.31,7.47,10.47-.22,5.04-2.96,8.87-8.04,9.98-3.5.76-4.1,2.38-4.01,5.65.2,7.11-3.57,12.45-10.31,14.66-2.63.86-3.97,1.83-4.28,4.73-.34,3.21,2.17,2.93,3.76,3.76,5.15,2.66,7.59,7.76,6.01,12.8-1.69,5.38-6.76,8.29-12.59,7.23-.86-.16-1.72-.36-2.7-.56,2.6,12.67-1.46,18.14-13.66,18.46-2.24.06-2.21.79-2.21,2.58,0,7.35-3.3,11.97-9.1,13.19-5.78,1.21-10.57-1.43-13.58-7.77-.85-1.79-1.5-3.25-3.88-3.08-2.08.15-2.8,1.5-3.37,3.12-.48,1.36-.91,2.75-1.37,4.16,7.43-.28,11.91,2.89,11.95,8.33.03,4.4-4.12,8.55-8.52,8.51-5.41-.05-8.55-4.46-8.38-11.79-13.11,3.93-19.26.47-22.35-12.79-.47-2.02-1.5-2.5-3.29-2.97-7.47-1.93-11.49-6.27-12.02-12.57-.49-5.82,2.86-10.82,9.82-13.73,2.8-1.17,3.44-2.94,3.34-5.53-.05-1.39.44-2.57-1.53-3.53-7.75-3.76-9.91-7.39-8.51-13.24,1.29-5.39,5.76-8.2,13.7-8.34-1.55-9.08,1.27-15.71,10.61-18.82,3.03-1.01,3.29-7.98.67-9.59-7.03-4.32-9.01-8.28-6.72-13.44,2.08-4.68,6.58-6.1,13.74-4.29.7-1.62-.69-2.73-1.06-4.05-1.88-6.72,1.17-13.11,7.64-15.73,3.3-1.34,6.45-7.05,5.81-10.27-.38-1.92-1.85-1.38-3-1.62-5.14-1.09-7.5-4.43-7.29-9.51.2-4.74,3.09-7.45,7.56-8.18,4.84-.78,8.11,1.57,9.89,6.06.27.68.44,1.4.68,2.1.58,1.72,1.74,2.29,3.44,1.65,1.17-.45,2.65-.63,2.68-2.33.03-1.75-1.49-1.88-2.65-2.33-5.93-2.29-9.41-6.37-9.24-12.94.16-6.35,3.67-10.33,9.57-12.01,4.72-1.35,2.73-5.36,3.7-8.17,1.16-3.34-1.91-2.74-3.51-3.46-4.16-1.87-6.42-5.11-5.84-9.62.59-4.53,3.64-7.38,8.12-7.78,4.49-.4,7.73,1.97,9.31,6.29.57,1.57.06,4,3.12,3.26,1.82-.44,3.72-.6,4.1-2.96.42-2.63-1.66-2.77-3.33-3.51-5.17-2.31-7.99-6.92-7.36-11.74.64-4.92,4.57-8.87,9.41-9.48,5.76-.72,9.6,1.57,12.24,7.18.63,1.34.49,3.63,3.01,3.12,1.36-.27,2.29-1.15,2.52-2.6.38-2.4-1.29-3-3.06-3.86-5.34-2.59-7.76-7.33-6.23-12,1.4-4.26,4.5-6.78,8.92-7.16,4.26-.37,7.96,1.54,9.27,5.54,1.42,4.31,4.2,4.06,7.64,4.2,3.35.14,4.86-1.05,6.04-4.11,1.74-4.51,5.41-6.94,10.34-6.86,4.91.08,8.49,2.51,10.19,7.1,1.05,2.84,2.37,4.01,5.61,3.78,3.07-.21,5.63.11,6.85-3.7,1.46-4.54,5.28-6.68,9.84-6.68,4.62,0,8.26,2.4,9.66,6.9,1.13,3.61,3.55,3.56,6.42,3.52,2.95-.04,5.74.51,7.1-3.41,1.44-4.15,4.77-6.48,9.36-6.42,4.59.06,7.68,2.52,9.26,6.63,2.19,5.71,7.03,2.15,10.51,3.27,3.17,1.02,2.9-1.87,3.7-3.48,1.88-3.8,4.91-6.15,9.13-6.07,3.95.07,7.32,2.11,8.49,5.97,1.06,3.5,2.96,3.98,6.08,3.48,1.78-.29,3.69-.08,5.49.2,2.02.32,2.88-.17,3.4-2.33,1.07-4.49,4.24-6.74,8.85-6.82,4.43-.08,7.61,2.21,8.78,6.23.86,2.94,2.24,3.18,4.71,2.82,1.8-.26,3.7-.27,5.51,0,2.47.36,4.04.09,4.91-2.75,1.36-4.41,4.7-6.39,9.34-6.08,4.42.3,7.27,2.64,8.12,6.92.45,2.27,1.31,2.5,3.36,2.11,2.14-.41,4.4-.39,6.59-.23,2.58.18,4.08-.65,5-3.19,1.47-4.09,4.71-6.12,8.99-6.01,4.29.11,7.2,2.51,8.81,6.44.59,1.42.47,3.74,2.98,2.84,3.42-1.23,8.11,2.29,10.43-2.4,2.21-4.49,4.95-7.72,10.38-7.58,5.12.13,8.16,2.95,9.72,7.57,1.38,4.09,4.65,1.68,7.07,2.11,2.01.36,3.87.48,4.72-2.34,1.58-5.3,5.27-8.49,10.97-8.34,5.36.14,9.02,3.08,10.49,8.24.88,3.1,3.14,2.48,5.28,2.61,2.67.16,4.82.08,6.19-3.1,2.56-5.94,7.61-8.73,12.52-7.48,4.94,1.26,8.19,4.48,8.78,9.53.59,5.04-1.77,8.89-6.34,11.24-1.13.58-2.48.85-3.43,1.63-1.1.9-.95,2.36-.48,3.6.46,1.21,1.64,1.35,2.77,1.4,1.61.08,1.52-1.21,1.82-2.25,1.56-5.57,4.97-8.91,11.02-8.97,5.48-.05,9.51,3.1,10.81,8.4,1.2,4.88-1.13,10.85-5.99,12.26-4.87,1.41-5.1,4.18-5.54,8.35-.43,4.03-.9,6.32,4.09,7.52,3.58.86,5.23,4.56,4.34,8.5-.87,3.85-3.6,6.09-7.45,6.29-3.94.2-7.21-2-7.66-5.78-.51-4.38-2.23-4.06-5.3-2.89-1.43.55-2.91.74-3.07,2.6-.16,1.87,1.21,2.57,2.63,3.07,4.08,1.43,7.1,3.94,8.12,8.28,1.5,6.36-1.28,11.97-7.54,14.11-3.01,1.02-4,2.22-3.75,5.38.23,2.92-1.07,5.74-2.64,8.89,5.18.6,9.88,1.99,9.28,8.23-.34,3.46-2.89,5.81-6.44,5.66-5.26-.23-7.08-3.86-7.07-8.73-1.86-.62-3.07.93-4.61,1.24-2.06.41-4.05,1.2-4.37,3.6-.37,2.83,2.35,2.36,3.8,3.06,4.87,2.36,7.23,6.11,6.85,11.5-.37,5.27-3.41,8.58-8.34,9.73-3.46.81-4.44,2.13-4.45,5.85-.02,6.41-3.49,11.24-9.74,13.34-2.61.88-4,1.93-4.28,4.82-.32,3.31,2.4,2.79,3.95,3.54,4.43,2.16,6.9,5.7,6.93,10.45.03,4.79-2.36,8.79-6.98,10.29-3.97,1.29-4.98,3.5-4.79,7.29.16,3.21-1.31,6.07-3.21,8.65-.96.97-1.92,1.95-2.88,2.92Z"/>
        <path d="M1415.65,498.85c-11.33,6.33-20.7,1.91-23.02-11.03-.4-2.21-1.26-2.96-3.38-3.49-7.51-1.89-11.57-6.3-12.03-12.51-.44-5.96,2.74-10.89,9.84-13.67,3.89-1.52,2.99-4.45,3.5-7.19.54-2.86-1.56-2.66-3.22-3.32-4.64-1.84-7.32-6.6-6.4-10.98,1.02-4.84,5.24-8.14,10.42-8.11,1.07,0,2.14.2,3.64.36-3.04-9.9-.02-16.54,9.8-20.04,3.88-1.38,1.61-5.59,2.56-8.39.82-2.43-1.82-2.28-3.15-2.88-3.96-1.82-6.18-4.77-5.56-9.15.58-4.08,3.3-6.71,7.35-7.18,4.35-.5,7.87,1.7,8.92,5.83,1.29,5.08,4.2,3.08,6.49,1.84,1.63-.88,2.52-3.1-.54-3.9-5.88-1.54-9.19-5.2-9.46-11.32-.29-6.55,3.69-9.73,9.16-12.28,4.5-2.1,1.64-7.26,3.25-10.81,1.1-2.44-2-1.82-3.27-2.43-3.59-1.69-5.37-4.44-4.9-8.4.48-4.04,3.08-6.3,6.95-6.68,3.95-.39,6.62,1.71,8.09,5.35,1.19,2.95,5.17,3.75,7.32,1.38,1.65-1.83.73-2.89-1.32-3.53-5.71-1.79-9.28-5.65-9.2-11.67.09-6.42,3.81-10.26,10.04-12.25,5.17-1.64,2.19-7.07,3.75-10.57,1.2-2.69-2.44-1.53-3.88-2.08-3.89-1.47-6.29-4.13-5.86-8.31.44-4.34,3.28-7.14,7.64-7.41,4.15-.27,7.57,2.13,7.97,6.16.67,6.7,4.38,3.31,6.73,2.23,3.04-1.4,2.11-4.79-1.85-6.77-4.59-2.29-7.15-5.75-6.64-10.99.46-4.76,3.37-7.65,7.76-9.07,5.13-1.67,10.07,1.07,12.71,6.95.63,1.41.44,3.57,3.05,2.82,2.04-.58,2.88-2.04,3.26-4.02.43-2.26-1.2-2.17-2.58-2.65-4.75-1.63-7.37-5.14-6.94-10.06.4-4.67,3.34-7.81,8.16-8.4,5.05-.62,8.53,1.78,10.26,6.5.71,1.92,1.41,3.5,3.8,2.67,2.86-1,6.99,2.08,8.69-2.52,1.9-5.16,5.16-8.46,10.93-8.49,5.74-.04,9.36,3.03,11.06,8.27.95,2.94,3.04,2.8,5.26,2.62,2.19-.18,4.82,1.01,5.87-2.48,1.55-5.16,5.39-8.08,10.67-8.03,5.07.05,8.56,3.09,10.17,7.96,1.42,4.29,4.96,1.93,7.54,2.48,2.06.44,3.88.26,4.75-2.4,1.52-4.64,4.75-7.33,9.86-7.34,5.16-.01,7.95,3.01,9.93,7.38,2.28,5.02,6.94,1.34,10.33,2.56,2.89,1.04,2.56-1.64,3.18-3.19,1.59-4.02,4.76-6.22,8.89-6.38,4.21-.16,7.25,2.14,9.14,5.98.85,1.72.65,5.28,4,3.78,3.63-1.63,9.42,3.91,11.28-3.84.94-3.9,4.63-5.52,8.72-5.42,4.17.11,7.32,2.24,8.23,6.13.92,3.9,2.52,5.1,6.34,4.12,1.53-.39,3.33-.15,4.93.19,2.07.44,2.95-.08,3.41-2.24,1.02-4.79,3.7-7.98,9.04-8.01,4.95-.03,8,2.52,9.1,7.19.54,2.3,1.67,2.49,3.58,2.01,1.06-.26,2.24-.5,3.28-.29,4.4.87,7.46.28,9.01-4.86,1.02-3.39,4.66-4.55,8.22-4.37,3.81.2,6.53,2.14,8.17,5.66.76,1.63.63,4.5,3.76,3.54,3.63-1.11,8.68,2.47,10.84-3.64,1.48-4.18,4.83-6.36,9.42-6.31,4.6.04,7.96,2.37,9.3,6.52,1.58,4.86,5.23,2.73,8.17,3.25,2.83.5,3.72-.94,4.59-3.38,1.7-4.79,5.36-7.47,10.53-7.42,5.2.06,8.7,2.94,10.31,7.72.78,2.32,1.74,3.58,4.24,3.05,2.44-.52,5.29,1.33,7.12-2.39,3.74-7.62,8.33-9.84,14.16-7.75,6.36,2.28,8.45,7.19,6.71,15.9,1.29.97,2.41-.17,3.55-.39,5.86-1.13,11.18,1.76,13.23,7.29,2.03,5.47.04,12.08-5.58,13.81-7.07,2.17-3.6,7.83-5.08,11.75-.6,1.59,1.89,1.87,3.13,2.5,4.31,2.17,6.31,5.56,5.37,10.37-.81,4.15-3.77,6.42-7.68,6.88-4.58.53-7.79-1.93-9.31-6.2-.7-1.96-1.16-3.56-3.7-2.55-1.27.5-3.24.07-3.35,2.16-.09,1.8,1.62,1.66,2.73,2.16,8.36,3.79,11.27,11.46,6.93,18.32-1.86,2.94-4.56,4.66-7.92,5.6-1.88.52-5.42,9.71-4.53,11.35.65,1.19,1.92.79,2.94,1.05,4.43,1.14,7.32,3.85,7.02,8.57-.28,4.38-3.06,7.17-7.53,7.37-4.73.2-7.5-2.47-8.39-7.09-.26-1.32.29-3.41-2.16-2.81-2.24.54-4.98.68-5.65,3.62-.52,2.27,1.43,2.74,2.94,3.28,5.51,1.96,8.4,5.96,8.49,11.66.09,5.46-3.37,9.22-10.18,11.31-2.1.65-2.5,1.58-2.39,3.52.1,1.81.01,3.74-.52,5.46-.8,2.6.08,3.59,2.54,4.27,4.17,1.15,6.79,3.87,6.34,8.44-.39,3.93-2.85,6.44-6.75,6.93-4.54.57-7.23-1.96-8.64-6.09-.57-1.66-.61-3.89-3.49-2.9-1.7.58-3.8.44-4.3,2.79-.68,3.17,2.07,2.84,3.74,3.64,4.75,2.27,7.45,5.94,7.4,11.3-.04,4.87-2.21,9.15-6.78,10.37-5.15,1.37-6.64,4.1-6.49,8.88.05,1.56-.8,3.15-1.34,5.11,4.84-.01,9.04,1.03,10.19,6.36.95,4.39-1.67,8.39-5.8,9.21-4.6.92-8.33-1.73-9.41-6.31-.28-1.2,1.41-4.25-1.73-3.4-2.28.62-5.85-.04-6.38,3.99-.3,2.27-.33,3.44,2.42,4.37,5.5,1.84,8.33,6.48,7.54,11.39-.74,4.57-3.32,7.78-8,8.78-5.54,1.19-9.57-.97-12.39-6.72-.88-1.8-1.61-3.31-3.95-3.01-1.33.18-1.87,1.03-1.95,2.26-.15,2.12,1.37,2.79,2.97,3.43,5.26,2.11,7.96,6.02,7.21,11.64-.64,4.81-3.57,8.04-8.51,8.94-5.56,1.01-9.32-1.08-12.23-7.03-.94-1.92-1.86-3.08-4.09-2.72-2.19.36-2.1,2.32-2.64,3.79-.98,2.63,1.05,3.03,2.8,3.69,4.55,1.72,6.84,5.01,5.94,9.88-.72,3.85-3.49,6.12-7.29,6.55-3.6.41-6.99-1.15-8.01-4.58-1.32-4.42-3.72-5.12-7.57-3.99-.68.2-1.51.21-2.19.02-4.37-1.24-7.34-1.13-8.66,4.57-.82,3.55-4.9,4.85-8.74,3.93-3.75-.9-6.15-3.39-6.53-7.31-.42-4.38,1.65-7.34,5.69-9.09,1.4-.6,4.19.22,3.52-2.97-.52-2.48-1.47-4.16-4.27-5.05-3.85-1.22-3.71,1.67-4.72,3.61-2.62,5.03-7.97,6.73-12.56,4.01-4.61-2.73-5.98-8.63-2.95-12.87.53-.74,1.26-1.32,1.89-1.99,1.53-1.64,5.19-1.05,5.37-3.24.29-3.57-.67-7.23-.01-10.91.24-1.32-1.31-1.55-2.25-2.06-6.28-3.45-8.26-7.09-6.61-12.15,1.55-4.77,5.36-6.75,11.98-6.25.31.02.65-.22.97-.34-2.14-12.04-.95-14.58,9.85-19.9,3.7-1.82,2.38-5.42,3.2-8.18.91-3.08-2.33-1.94-3.71-2.59-4.12-1.94-6.41-5.05-5.94-9.6.44-4.32,3.15-7.08,7.41-7.81,4.57-.78,7.71,1.4,9.81,5.44.72,1.38.21,3.79,2.29,4,1.89.2,4.2.27,5.01-2.33.8-2.55-1.33-2.58-2.76-3.15-5.31-2.12-8.6-5.91-8.47-11.7.13-5.52,3.3-9.48,8.54-11,3.67-1.06,2.8-3.47,3.08-5.95.28-2.49-.41-3.55-2.86-4.32-5.03-1.57-7.83-5.25-8.43-10.54-.17-1.5.31-4.05-2.39-2.95-2.15.87-5.51-2-6.57,2.76-2,8.99-4.47,10.91-13.41,11.6-2.08.16-2.26.61-2.26,2.53,0,8.55-2.42,11.99-10.59,14.46-5.4,1.64-2.22,6.2-3.55,9.21-1.28,2.9,1.96,2.27,3.42,2.8,4.14,1.49,6.52,4.33,6.08,8.74-.38,3.83-2.65,6.46-6.67,7-4.44.59-7.45-1.36-9.01-5.55-.79-2.11-.82-5.15-4.58-3.55-1.31.56-2.99.48-3.22,2.45-.23,2.01.8,3.06,2.56,3.7,4.93,1.8,7.98,5.16,8.36,10.55.41,5.86-2.12,10.22-8.31,12.1-6.09,1.85-2.88,6.75-4.16,10.12-1.17,3.08,1.93,2.92,3.56,3.67,3.78,1.76,5.87,4.66,5.15,8.77-.71,4.05-3.39,6.45-7.71,6.53-4.29.09-6.99-2.02-7.91-6.18-.37-1.64-.17-3.68-2.75-2.74-1.93.7-4.74.26-5.27,3.14-.43,2.31,1.53,2.45,3.09,3.05,5.38,2.08,8.42,6.02,8.08,11.86-.33,5.82-3.66,9.53-9.34,10.83-2.96.68-4.23,2.03-4.32,5.25-.18,6.54-3.59,11.07-9.82,13.25-2.17.76-4.08,1.34-4.3,4.22-.26,3.3,2.34,3.28,4.2,4.14,4.94,2.29,7.09,6.16,6.7,11.54-.38,5.31-3.48,8.66-8.33,9.71-3.47.76-4.03,2.48-3.84,5.36.23,3.66-.89,6.89-3.3,9.67-.66.64-1.31,1.29-1.97,1.93-1.73,1.76-3.88,2.75-6.23,3.34-2.1.53-2.98,1.93-3.13,3.99-.16,2.06,1.5,2.22,2.79,2.82,5.74,2.65,8.64,6.85,8.14,11.77-.55,5.43-4.15,9.16-10.51,10.35-2.33.43-3.58.82-3.35,3.67.62,7.66-3.16,12.6-10.29,15-2.62.88-2.95,2.73-3.25,5.09-.36,2.83,1.65,2.74,3.27,3.41,4.96,2.06,7.67,5.83,7.22,11.19-.45,5.3-3.43,9.04-8.86,9.81-3.31.47-3.75,2.16-3.66,4.86.26,7.87-3.57,12.88-11.04,15.09-1.75.52-3.08,1.08-3.23,3.13-.14,1.89.66,2.96,2.37,3.87,8.45,4.49,9.46,6.64,8.02,16.76,4.55-.66,9.13-1.36,12.88,2.08,1.37,1.26,2.84,2.59,3.17,4.42,1.04,5.8,5.8,2.85,8.83,3.84,3.26,1.06,3.23-2,4.18-3.83,2.34-4.48,6.15-6.23,11.03-5.37,4.5.79,7.18,3.71,7.81,8.15.67,4.69-1.29,8.26-5.56,10.4-2.04,1.02-4.83,1.14-4.05,4.7.69,3.16-.49,6.65,4.45,8.09,5.27,1.54,7.8,6.29,7.23,11.73-.59,5.55-3.69,9.52-9.59,10.63-1.38.26-3.33.01-2.93,2.3.95,5.37-1.77,9.58-4.16,13.92l.07-.07c-2.83,1.25-5.27,3.26-8.4,3.98-2.83.65-3.18,3.15-3.61,5.57-.49,2.78,1.64,2.78,3.27,3.43,4.35,1.72,6.26,5.06,5.53,9.56-.65,4.03-3.31,6.56-7.44,6.94-4.32.39-7.29-1.69-9.1-5.65-.63-1.37.1-4.38-2.99-3.35-2.22.74-5.18.25-6,3.77-.61,2.62-2.11,5.03-3.21,7.53-.52.52-1.04,1.04-1.56,1.56-4.14,2.03-8.24,4.24-13.1,3.34-2.35-.43-2.61,1.01-3.12,2.76-1.48,5.07-4.7,8.23-10.25,8.47-5.62.25-9.05-2.78-10.75-7.74-.8-2.35-2.12-3.05-4.04-2.26-2.68,1.1-6.65-3.13-8.31,2.3-1.43,4.68-4.96,7.45-9.89,7.41-4.92-.03-8.31-2.87-9.81-7.53-.71-2.22-1.74-2.46-3.96-2.48-5.14-.05-8.97.1-12.21,5.78-3.56,6.25-13.64,3.67-15.26-3.74-.95-4.32-2.61-3.91-6.02-3.82-4.8.12-9.26-1.33-9.9,6.12-.27,3.19-4.38,4.78-7.95,4.74-3.81-.04-6.52-2-8.39-5.36-.86-1.53-.64-5.21-3.41-3.88-3.63,1.75-9.19-2.97-11.23,3.72-1.33,4.36-5.09,6.4-9.4,6.41-4.64.02-7.92-2.65-9.68-6.97-.58-1.43-.47-4.04-2.82-2.99-3.24,1.46-8-2.66-10.01,2.96-1.93,5.39-5.98,8.05-11.6,7.13-5.53-.91-8.71-4.6-8.98-10.31-.13-2.83-.91-3.71-4-3.42-7.21.67-12.94-3.53-14.52-9.97-1.5-6.15,1.63-12.25,8.14-15.18,2.19-.98,3.75-1.85,3.99-4.56.29-3.27-2.36-2.76-3.97-3.48-5.37-2.39-8.66-6.96-8.4-12.46.26-5.63,3-9.7,8.32-11.94,3.59-1.51,6.43-7.39,5.47-10.9-.47-1.7-1.95-1.37-3.08-1.81-4.16-1.63-6.01-4.68-5.41-9.11.51-3.81,3.05-5.95,6.57-6.5,4.11-.63,7.09,1.36,8.71,5.22.75,1.78.81,4.19,3.91,3.24,2.56-.78,4.64-1.61,5.36-4.75.77-3.37-1.5-3.52-3.47-4.35-3.85-1.63-5.75-4.67-5.27-8.76.49-4.15,3.32-6.64,7.31-7.18,4.1-.55,7.05,1.52,8.65,5.37.73,1.75.8,4.6,3.79,3.31,3.23-1.39,8.21,2.2,9.88-3.45,1.61-5.44,5.46-8.42,10.9-8.59,5.54-.17,9.26,3.04,11.27,8.17.6,1.52.88,3.23,3.28,2.86,2.18-.34,4.48-.13,5.35-2.9,1.77-5.63,5.47-9.04,11.49-9.58,1.97-.18,2.95-1.06,3.11-3.09.57-7.18,4.26-12.01,11.21-14.11,2.06-.62,3.03-1.68,3.09-3.89.05-2.22-.92-3.29-2.92-4.03-5.47-2.04-8.47-6.17-7.76-11.93.67-5.45,4.13-8.92,9.88-9.52,2.02-.21,2.65-.87,2.45-3.17-.73-8.15,2.92-13.82,10.66-16.61,2.41-.87,3.64-2.38,3.81-4.82.19-2.63-2.17-2.58-3.71-3.31-4.89-2.3-7.48-6.12-6.65-11.49.82-5.23,4.08-8.76,9.52-9.24,2.96-.26,3.96-.85,3.64-4.09-.74-7.35,2.76-12.51,9.68-14.86,3.14-1.07,3.46-3.16,4.01-5.76.69-3.28-1.93-2.98-3.56-3.75-4.65-2.2-7.4-5.83-6.58-10.96.83-5.19,4.07-8.76,9.69-8.89,3.35-.08,3.79-1.2,3.47-4.33-.74-7.02,2.34-11.81,9.24-14.52,2.94-1.15,3.63-2.85,3.94-5.74.33-3.07-1.36-3.65-3.48-4.58-4.76-2.08-7.25-5.87-6.31-11.02.91-4.98,4.08-8.4,9.44-8.43,3.47-.02,3.69-1.47,3.58-4.35-.34-8.75,2.21-12.89,10.44-15.15,4.73-1.3,3.08-4.8,3.79-7.39.87-3.18-2.22-2.06-3.65-2.55-4.78-1.64-7.9-6.64-6.86-11.21,1.31-5.72,6.16-8.45,13.34-7.48,1.24-1.26-.08-2.34-.3-3.48-1.42-7.42,1.4-13.39,8.56-15.8,3.84-1.29,3.61-3.9,4.24-6.67.8-3.54-1.98-3.74-4.03-4.76-4.06-2.03-6.08-5.38-5.55-9.87.53-4.51,3.31-7.8,7.7-8.22,4.44-.42,4.74-1.71,4.78-6.04.04-5.33-.87-7.04-6.34-7.38-3.79-.23-5.92-3.99-7.07-7.72-.44-1.42,0-3.88-2.58-3.34-2.11.44-5.16-.6-5.89,2.8-1.33,6.13-4.91,10.18-10.99,11.89-2.04.57-2.22,2.12-2.48,3.82-.46,3.12-1.46,6.08-3.13,8.78-1.34,1.34-2.67,2.69-4,4.03-2.72,2-7.95.73-8.72,4.36-.93,4.39,4.68,3.21,6.95,5.32,6.99,6.48,4.97,16.88-4.33,20.28-1.51.55-3.83.55-3.87,2.52-.06,3.51-.83,6.87-1.25,10.3-.11.87,1.47.71,2.34.81,5.13.61,7.61,3.7,7.21,8.63-.34,4.22-3.21,6.57-7.4,6.81-4.56.27-7.51-3.05-8.01-8.59-.05-.51-.1-1.01-.17-1.75-1.9.66-3.6,1.27-5.32,1.83-1.92.62-2.41,2.15-2.48,3.88-.06,1.66,1.3,1.91,2.5,2.45,6.3,2.89,8.74,6.69,8.01,12.22-.73,5.51-4.23,8.68-11.04,9.46-2.63.3-3.22,1.09-3.12,3.79.34,9.29-5.14,14.83-14.5,14.73-2.23-.02-2.61.23-2.79,2.49-.57,7.11-4.15,11.31-9.8,12.23-6.43,1.05-10.55-1.32-13.76-8.28-.79-1.71-1.55-2.81-3.54-2.77-2,.04-2.88,1.18-3.5,2.92-.61,1.72-1.49,3.34-2.25,5-1.04,1.04-2.08,2.07-3.11,3.11Z"/>
        <path d="M1415.65,498.85c1.04-1.04,2.08-2.07,3.11-3.11,1.99-.17,3.86-1.16,5.97-.68,4.28.96,7.55,5.19,7.03,9.29-.56,4.49-5.02,8.1-9.36,7.57-4.56-.55-7.95-4.66-7.56-9.31.11-1.27.53-2.51.81-3.76Z"/>
        <path d="M1341.73,739.18c4.19-.06,8.21,3.71,8.39,7.87.2,4.64-3.49,8.43-8.2,8.4-4.67-.03-7.9-3.28-7.92-7.96-.01-4.56,3.41-8.25,7.73-8.31Z"/>
        <path d="M154.27,462.97c4.16-.1,7.62,3.32,7.77,7.69.16,4.45-2.92,7.91-7.22,8.14-4.44.24-8.1-3.33-8.1-7.9,0-4.32,3.34-7.83,7.55-7.94Z"/>
        <path d="M470.47,393.09c-1.36,1.33-2.71,2.66-4.07,3.99-3.42.18-6.73-.09-8.81-3.29-1.75-2.69-1.77-5.62-.02-8.31,1.63-2.5,4.14-3.75,7.12-3.13,3.1.65,5.33,2.59,5.88,5.83.27,1.58-.05,3.26-.1,4.9Z"/>
        <path d="M1618,510.87c-3.96-.27-6.9-3.75-6.67-7.9.22-4.07,3.71-7.24,7.64-6.93,3.89.3,7.08,3.99,6.81,7.9-.27,3.94-3.93,7.2-7.77,6.94Z"/>
        <path d="M1595.86,547.51c.66-.64,1.31-1.29,1.97-1.93,1.63-.22,3.28-.71,4.88-.6,3.96.28,7.19,4.22,6.83,7.99-.38,3.88-4.27,6.99-8.19,6.53-3.99-.47-6.76-4.02-6.33-8.24.13-1.26.55-2.5.84-3.74Z"/>
        <path d="M349.88,640.93c-3.97.17-7.32-3.09-7.3-7.21.02-4.32,2.33-6.84,6.55-7.33,3.95-.46,7.49,2.85,7.66,6.84.18,4.09-2.91,7.52-6.91,7.69Z"/>
        <path d="M193.83,376.75c-1.22,1.22-2.45,2.44-3.67,3.66-2.78.22-5.53.32-7.8-1.78-2.48-2.29-2.88-5.15-1.8-8.08,1.16-3.13,3.78-4.37,7.06-4.1,3.36.27,5.43,2.24,6.17,5.38.37,1.56.05,3.28.04,4.92Z"/>
        <path d="M649.26,604.45c-.87.92-1.74,1.83-2.61,2.75-3.51,1.57-6.84,1.6-9.54-1.52-2.15-2.49-2.28-5.39-.81-8.23,1.56-3.01,4.32-3.84,7.49-3.33,3.33.53,5.15,2.69,5.57,5.94.18,1.44-.06,2.93-.1,4.39Z"/>
        <path d="M196.29,324.7c-.12-3.94,2.88-7.02,6.93-6.97,4.2.06,6.41,2.56,6.98,6.44.51,3.47-3.1,7.29-6.68,7.43-3.65.15-7.12-3.16-7.23-6.9Z"/>
        <path d="M838.33,412.64c-4.88-.04-7.77-2.97-7.48-7.03.29-4.07,2.74-6.37,6.69-6.72,3.6-.32,7.36,3.33,7.08,6.93-.32,4.19-2.6,6.74-6.3,6.83Z"/>
        <path d="M577.92,496.75c3.65.28,5.95,2.51,6.21,6.56.25,3.89-2.99,7.09-6.89,6.87-4.05-.23-6.42-2.56-6.76-6.56-.31-3.7,3.12-6.9,7.44-6.87Z"/>
        <path d="M1254.33,369.49c.97-.91,1.93-1.82,2.9-2.74,1.1-.04,2.21-.2,3.29-.1,4.31.4,6.83,2.77,6.67,7.13-.16,4.18-2.98,6.21-6.91,6.33-3.91.12-6.73-3.58-6.4-7.93.07-.91.29-1.8.45-2.7Z"/>
        <path d="M1446.35,649.84c-.48,4.01-2.63,6.66-6.66,6.72-4,.06-6.47-2.47-6.91-6.45-.39-3.56,3.29-7.3,6.92-7.03,4.05.3,6.18,2.77,6.66,6.76Z"/>
        <path d="M675.07,431.76c4.17.45,6.51,2.55,6.4,6.82-.11,4.26-2.63,6.56-6.66,6.46-4.04-.1-6.52-2.59-6.41-6.78.11-4.17,2.6-6.26,6.66-6.5Z"/>
        <path d="M945.03,451.28c.96-.97,1.92-1.94,2.88-2.92,3.05.02,6.35-.87,8.64,2.09,1.87,2.42,1.95,5.13.51,7.71-1.26,2.25-3.43,3.24-6.03,2.99-3.08-.29-5.1-2.05-5.81-4.98-.38-1.56-.15-3.27-.2-4.91Z"/>
        <path d="M974.42,470.32c-.3,4.45-2.49,7.12-6.5,7.2-4.01.08-6.51-2.43-6.55-6.6-.04-3.92,2.34-6.35,6.05-6.53,4.01-.2,6.34,2.3,7,5.94Z"/>
        <path d="M1592.49,600.88c-.14,4.2-2.51,6.65-6.43,6.73-3.91.08-6.57-2.21-6.58-6.43-.01-4.11,2.39-6.63,6.36-6.71,3.97-.09,6.34,2.31,6.65,6.41Z"/>
        <path d="M974.45,405.75c-.5,4.07-2.58,6.7-6.65,6.69-4.03,0-6.5-2.44-6.51-6.55,0-4.14,2.57-6.55,6.52-6.59,4.01-.04,6.23,2.5,6.64,6.46Z"/>
        <path d="M756.41,786.47c-4.08-.33-6.77-2.49-6.66-6.56.1-3.92,2.55-6.55,6.74-6.49,3.91.06,6.22,2.63,6.39,6.28.19,4.08-2.39,6.31-6.47,6.76Z"/>
        <path d="M1497.61,387.1c1.33-1.34,2.67-2.69,4-4.03,1.1.04,2.21.04,3.3.12,3.92.31,6.21,2.67,6.28,6.37.07,3.44-2.02,5.89-5.65,6.37-3.87.51-6.33-1.43-7.45-5.03-.37-1.2-.34-2.53-.49-3.81Z"/>
        <path d="M816.11,449.7c1.38-.46,2.74-1.13,4.16-1.33,4.07-.58,7.45,2.11,7.7,5.95.25,3.81-3.06,7.09-6.93,6.87-3.82-.21-6.71-3.66-6.22-7.54.16-1.26.68-2.46,1.03-3.69,0,0,.26-.26.26-.26Z"/>
        <path d="M1564,776c.52-.52,1.04-1.04,1.56-1.56,1.41-.35,2.84-1.07,4.21-.98,3.78.26,6.28,2.47,6.35,6.25.07,3.69-1.98,6.34-5.94,6.57-4.14.25-6.55-2.06-7.06-6.06-.17-1.35.56-2.82.88-4.23Z"/>
        <path d="M561.25,493.73c-3.68-.4-6.26-2.09-6.41-6.13-.16-4.19,2.12-6.81,6.17-6.88,4.01-.07,6.52,2.49,6.52,6.62,0,3.91-2.48,5.89-6.28,6.39Z"/>
        <path d="M560.83,448.37c3.89.24,6.22,2.21,6.64,6,.38,3.42-2.96,6.93-6.41,6.69-3.78-.27-6.1-2.48-6.18-6.31-.09-3.9,2.21-5.94,5.95-6.37Z"/>
        <path d="M1026.71,503.7c.13-4.05,2.23-6.38,6.08-6.5,3.95-.12,6.25,2.49,6.38,6.16.14,3.79-2.29,6.25-6.15,6.36-3.92.12-6-2.21-6.31-6.03Z"/>
        <path d="M213.26,276.05c.27-3.87,2.25-6.34,6.07-6.49,3.85-.15,6.29,2.3,6.45,6,.16,3.75-2.21,6.29-6.01,6.44-3.82.15-5.94-2.23-6.51-5.95Z"/>
        <path d="M1575.75,649.72c-.18,3.98-2.23,6.28-6.18,6.23-3.9-.05-6.24-2.46-6.18-6.29.06-3.55,2.3-5.86,5.96-5.94,3.89-.08,6.1,2.05,6.4,6.01Z"/>
        <path d="M674.79,509.77c-3.6-.74-6.12-2.73-5.93-6.61.17-3.54,2.54-5.83,6.04-5.86,3.81-.04,6.27,2.44,6.26,6.19-.01,3.76-2.55,5.83-6.37,6.28Z"/>
        <path d="M1455.52,607.12c-3.83-.49-5.93-2.69-5.69-6.58.23-3.65,2.52-5.78,6.14-5.54,3.79.25,6.03,2.56,5.78,6.54-.24,3.72-2.57,5.41-6.24,5.59Z"/>
        <path d="M442.13,369.32c.5-.48.99-.95,1.49-1.43,1.07-.22,2.14-.63,3.21-.61,4.16.08,6.64,2.39,6.47,6.43-.15,3.45-2.52,5.78-6.15,5.61-4.12-.2-6.15-2.8-5.99-6.9.04-1.05.63-2.07.97-3.1Z"/>
        <path d="M1597.41,742.73c1.02-.4,2.01-.92,3.07-1.18,3.29-.79,5.75.41,7.29,3.38,1.4,2.67.55,5.05-1.44,6.96-2.06,1.98-4.56,2.31-7.07.84-2.67-1.56-3.72-3.95-2.96-6.99.27-1.05.77-2.05,1.17-3.07,0,0-.07.07-.07.07Z"/>
        <path d="M1478.31,552.24c-.58,3.56-2.51,6.11-6.4,6.07-3.59-.04-5.91-2.42-5.94-5.92-.04-3.79,2.4-6.24,6.23-6.18,3.52.06,5.59,2.34,6.1,6.03Z"/>
        <path d="M697.07,453.92c.1,4.27-1.93,6.56-5.43,6.74-3.79.2-6.25-2.1-6.28-5.98-.03-3.61,2.24-5.9,5.77-5.96,3.5-.06,5.71,2.01,5.94,5.21Z"/>
        <path d="M1282.78,389.76c-.33,3.56-2.33,5.9-5.87,5.87-3.79-.03-6.03-2.38-5.84-6.37.17-3.74,2.52-5.77,6.02-5.65,3.53.12,5.49,2.47,5.7,6.15Z"/>
      </g>
    </g>
  </g>
</svg>